<svg xmlns="http://www.w3.org/2000/svg" viewBox="0 0 819.18 283.46"><defs><style>.cls-1{fill:#0079c8;}.cls-2{fill:#fff;}</style></defs><title>Bupa-Dental</title><g id="Layer_2" data-name="Layer 2"><g id="Bupa_Dental_logo_digital" data-name="Bupa Dental logo digital"><path class="cls-1" d="M0,0V283.46H283.46V0Z"/><path class="cls-2" d="M82.67,40.1H80.54s-3.14,18-3.49,20c-.77,4.41-2.89,7.43-8.86,7.43-3.39,0-6.71-2-5.94-6.65C62.56,59.15,64.81,46.07,65,45c.63-3.54-2.38-4.92-4.87-4.92H58.25c-.46,2.73-2.53,14.24-3.32,18.75a18.62,18.62,0,0,0-.3,4.85c.71,6.12,6.08,9.84,12.71,9.84,11.47,0,15.78-6,17.16-13.1C85,58.09,87.12,46.22,87.29,45,87.78,41.48,84.87,40.1,82.67,40.1Z"/><path class="cls-2" d="M51.18,37.85C51.18,30.44,46.43,27,38.07,27H21.88L13.73,72.83H28.54A49.73,49.73,0,0,0,37,72.34c8.31-1.76,11.68-7.8,12.35-12.24A9.52,9.52,0,0,0,42,48.92C45.28,48.21,51.18,44.8,51.18,37.85ZM33.8,67.2a25.4,25.4,0,0,1-5.51.35H22.9l2.72-15.37h8C44.17,52.18,43.21,64.87,33.8,67.2Zm3.14-20.9a16.07,16.07,0,0,1-4.83.43H26.59l2.59-14.67H36.4C45.07,32.06,44.39,43.85,36.94,46.3Z"/><path class="cls-2" d="M265.39,86.62c-3.06,0-7.23-.17-9.72-1-2.93-1-5.52-3-8.26-5.11-1.38-1-2.79-2.15-4.33-3.17a9,9,0,0,0-4.91-1.82c-2,0-3.94,1.09-6.31,3.53-3.2,3.29-8.3,10.76-10.33,13.82a.75.75,0,0,1-.56.4c-.51,0-.52-.65-.52-.87-.09-8.55-1.44-55.22-2.37-69.15-.42-6.17-2.33-10-5-10-2.15,0-5.36,2.85-7.37,10.9-5.12,20.46-16,66-20.73,89.08-.14.64-.85.63-1,0-.53-2.36-1-5-1.44-7.3-1.4-7.13-2.61-13.29-5-16.67-2.73-3.85-6.77-4.1-11.66-.85A32.16,32.16,0,0,0,162.68,91c-3.14,2.7-6.69,5.76-12.59,5.76H92.46l-1.41,7.64h60.64c6.2,0,11.95-3.57,15.39-6,1.74-1.25,2.94-2,3.91-2,1.33,0,1.93,1.35,2.42,3.38.25,1,.55,2.38.88,4,1.15,5.28,2.88,13.6,5.06,19.13,1,2.57,2.54,4,4.27,4,2.65,0,5.36-3.13,6.88-8C192.55,112.38,204.81,59.25,210,37c.22-.91.33-1.42.34-1.46a.75.75,0,0,1,.66-.66c.27,0,.57.24.59.74v.09c.4,22.51,1.52,62.05,3.19,66.11.93,2.25,2.34,3.44,4.11,3.44,2,0,4.5-1.65,6.24-4.19l3.18-4.71c2.93-4.35,6.25-9.28,7.23-10.33,1.46-1.55,3.13-1.56,5.52.07.35.24.76.53,1.25.89a37.68,37.68,0,0,0,11.58,5.69A41.4,41.4,0,0,0,264,93.73c1.85,0,3.82-.08,4.39-.11l1.31-7.08C269,86.57,267.12,86.62,265.39,86.62Z"/><path class="cls-2" d="M94.47,85.76l3.32-18.07c1.29,2.58,5,5.85,10.86,5.85,10.58,0,17.12-8.25,17.78-17.92.7-10.27-5.34-16.19-12.34-16.19a14.6,14.6,0,0,0-12.33,6l.1-.44c.66-3.16-2-4.92-4.32-4.92H95.27s-6.16,35.26-7,39.51c-1,5,3,6.15,4.33,6.15ZM111.71,45.3c11,.62,7.57,23.55-4.09,22.9C95.67,67.54,99.56,44.63,111.71,45.3Z"/><path class="cls-2" d="M143.33,73.52c6.45,0,9.9-2.85,12-6.1l-.11.49c-.61,3,1.93,4.92,4.31,4.92h2.08l5.76-32.77h-7.13l-1,5c-1.28-2.58-4.92-5.67-10.79-5.67-10.37,0-16.52,8.54-17.55,17.64C129.76,67.44,136.48,73.52,143.33,73.52Zm6.19-28.79c11.95.66,8.06,23.5-4.09,22.83C134.44,67,137.86,44.08,149.52,44.73Z"/><path class="cls-1" d="M408.24,85.05H368.5V198.41h39.74c34.86,0,60.16-23.9,60.16-56.84C468.4,108.82,443.1,85.05,408.24,85.05Zm44.67,56.84c0,25-18.37,42.45-44.67,42.45H383.52V99.12h24.72C434.54,99.12,452.91,116.71,452.91,141.89Z"/><path class="cls-1" d="M518.83,112.29c-23.1,0-40.52,18.92-40.52,44s18.1,44,42.1,44c14.19,0,24.88-4.87,34.67-15.78l.83-.93-9.43-8.46-.84.88c-7.28,7.62-15.19,11.17-24.91,11.17-14.5,0-25.36-10.07-27.41-25.2H558l.12-1.12a33.29,33.29,0,0,0,.17-3.94C558.25,130.23,542.41,112.29,518.83,112.29Zm24.43,38.17H493.32c2-15,12.22-25.37,25.19-25.37C529.19,125.09,541.15,131.79,543.26,150.46Z"/><path class="cls-1" d="M611.83,112.29c-11.23,0-20.22,4.42-26.77,13.15V114h-14.7v84.38h14.7V150.28c0-14.36,9.57-24.4,23.29-24.4,13.39,0,21.39,8.77,21.39,23.45v49.08h14.7V146.32C644.44,125.65,631.64,112.29,611.83,112.29Z"/><path class="cls-1" d="M677.66,89.33H663V114h-11.4v13.28H663v48.15c0,15.72,8.66,24.37,24.38,24.37a32,32,0,0,0,15.3-3.62l.68-.35V182.65l-1.8.87a24.46,24.46,0,0,1-11.33,2.73c-8.55,0-12.53-3.93-12.53-12.37V127.31h26V114h-26Z"/><path class="cls-1" d="M750.2,112.92a69.26,69.26,0,0,0-30.29,6.93l-1,.48,4.5,12.34,1.23-.57c6.7-3.06,14.28-5.9,24.34-5.9,15.14,0,23.14,7.29,23.14,21.07v1.21a86.9,86.9,0,0,0-23.93-3.09c-22.7,0-36.25,10.41-36.25,27.85,0,17.67,16,26.91,31.82,26.91,13.95,0,22.9-6,28.36-11.91v10.17h14.22V147.12C786.29,125.07,773.48,112.92,750.2,112.92Zm22,47.18v7C772.23,179,761,188,746.08,188c-9.31,0-19.33-4.77-19.33-15.22,0-9.92,8.47-15.85,22.66-15.85A83.82,83.82,0,0,1,772.23,160.1Z"/><rect class="cls-1" x="804.48" y="80.3" width="14.7" height="118.11"/></g></g></svg>