<?xml version="1.0" encoding="UTF-8"?>
<svg width="392px" height="56px" viewBox="0 0 392 56" version="1.1" xmlns="http://www.w3.org/2000/svg" xmlns:xlink="http://www.w3.org/1999/xlink">
    <!-- Generator: Sketch 54.1 (76490) - https://sketchapp.com -->
    <title>ExclusivetoOpenmay</title>
    <desc>Created with Sketch.</desc>
    <g id="Page-1" stroke="none" stroke-width="1" fill="none" fill-rule="evenodd">
        <g id="Artboard" transform="translate(-559.000000, -595.000000)" fill="#00E4B0" fill-rule="nonzero">
            <path d="M559.66824,627.89138 C559.22432,627.17001 559.3353,626.44864 559.8902,624.89492 C562.38725,618.3471 567.71429,608.30341 572.31996,601.1452 C571.04369,600.31285 570.37781,599.42501 570.10036,598.3707 C569.93389,597.59384 570.54428,597.2609 571.37663,597.2609 C574.42858,597.2609 577.36955,596.92796 580.03307,596.48404 C581.91973,596.20659 583.47345,595.92914 584.91619,595.92914 C587.46873,595.87365 588.85598,596.87247 589.57735,598.81462 C589.79931,599.42501 589.41088,599.92442 588.35657,599.92442 C585.58207,599.92442 582.58561,600.47932 579.97758,600.97873 C579.14523,601.1452 578.59033,601.25618 577.75798,601.36716 C575.92681,604.14166 573.37427,608.74733 570.76624,613.46398 C571.93153,613.29751 572.87486,613.24202 573.65172,613.18653 C576.70367,613.07555 578.14641,614.07437 578.7568,615.85005 C579.03425,616.57142 578.92327,617.12632 577.647,617.12632 C574.92799,617.12632 571.04369,617.7922 568.04723,618.56906 C566.49351,621.51003 565.32822,623.78512 564.21842,626.28217 C566.49351,625.67178 569.98938,625.06139 571.76506,624.95041 C574.76152,624.83943 576.31524,625.72727 576.98112,627.55844 C577.25857,628.3353 577.0921,628.77922 575.92681,628.77922 C572.98584,628.72373 567.04841,630.16647 563.99646,630.99882 C562.6647,631.38725 561.77686,631.38725 561.05549,630.33294 C560.66706,629.77804 560.27863,628.8902 559.66824,627.89138 Z M580.211082,630 C580.377552,628.16883 581.542842,626.50413 583.651462,624.22904 C584.927732,622.7863 586.647922,621.39905 588.534582,619.78984 C587.924192,615.90554 587.147332,611.02242 586.758902,611.02242 C586.259492,611.02242 584.872242,613.02006 583.263032,616.40495 C582.819112,617.34828 581.709312,617.45926 581.320882,616.51593 C580.987942,615.68358 581.265392,614.40731 581.653822,613.353 C582.597152,610.80046 585.593612,608.19243 588.423602,608.19243 C590.643202,608.19243 591.919472,609.35772 592.529862,612.35418 C592.807312,613.63045 592.973782,614.35182 593.195742,616.07201 C595.748282,613.9079 598.245332,611.57732 600.353952,608.85831 C601.408262,607.47106 602.518062,607.41557 602.518062,609.19125 C602.518062,611.02242 601.408262,612.74261 599.410622,614.90672 C598.300822,616.18299 596.081222,618.01416 593.750642,619.90082 C594.305542,623.95159 594.416522,624.89492 594.582992,625.67178 C595.026912,627.66942 595.415342,628.39079 595.970242,628.39079 C597.523962,628.39079 599.688072,624.451 601.075322,621.45454 C601.574732,620.40023 602.462572,620.45572 602.906492,621.28807 C603.294922,622.00944 603.239432,623.56316 602.518062,625.0059 C600.797872,628.27981 597.745922,630.88784 594.804952,630.88784 C590.976142,630.88784 589.533402,628.27981 589.144972,623.78512 C586.758902,625.78276 584.483812,628.00236 582.486172,630.44392 C581.709312,631.33176 579.989122,631.77568 580.211082,630 Z M613.683094,608.02596 C615.736224,608.02596 618.066804,609.91262 618.954644,611.57732 C619.786994,613.40849 618.899154,615.46162 617.844844,617.62573 C617.400924,618.45808 617.067984,619.29043 616.846024,619.90082 C616.457594,620.95513 615.958184,621.06611 614.848384,620.51121 C613.849564,619.90082 612.906234,618.84651 612.906234,617.34828 C612.906234,616.62691 613.183684,615.51711 614.182504,613.24202 C614.737404,612.13222 615.125834,611.1334 614.903874,610.91144 C614.237994,610.35654 610.631144,613.96339 608.411544,618.45808 C607.301744,620.73317 606.746844,623.00826 606.746844,624.67296 C606.746844,627.11452 607.745664,628.61275 609.243894,628.66824 C613.405644,628.72373 617.234454,624.451 619.454054,621.1216 C619.953464,620.28925 620.785814,620.06729 621.118754,621.01062 C621.396204,621.73199 621.396204,623.17473 620.397384,624.72845 C618.288764,628.05785 613.794074,630.77686 609.465854,630.83235 C604.360774,630.88784 601.530784,627.61393 601.530784,623.17473 C601.530784,621.17709 602.085684,618.95749 603.250974,616.73789 C606.080964,611.02242 610.464674,608.02596 613.683094,608.02596 Z M639.053565,600.25736 C639.053565,601.03422 638.998075,601.64461 638.720625,602.58794 C637.000435,609.19125 630.952025,615.73907 626.068905,619.01298 C624.959105,621.84297 624.237735,624.34002 624.237735,626.28217 C624.237735,627.61393 624.570675,628.55726 625.292045,628.55726 C627.844585,628.55726 631.063005,624.83943 633.171625,620.84415 C633.892995,619.4569 635.113775,619.4569 635.502205,620.89964 C635.724165,621.73199 635.668675,623.00826 634.947305,624.50649 C634.114955,626.17119 630.008695,630.72137 625.347535,630.72137 C621.962645,630.72137 619.854025,628.77922 619.854025,624.95041 C619.854025,624.00708 619.965005,622.89728 620.242455,621.78748 C622.406565,612.57614 628.676935,602.31049 634.114955,596.59502 C635.169265,595.54071 636.168085,595.20777 637.222395,596.20659 C638.443175,597.2609 639.053565,598.81462 639.053565,600.25736 Z M635.946125,601.64461 C635.724165,601.53363 634.281425,603.69774 632.394765,606.97165 C630.952025,609.41321 628.510465,613.57496 628.122035,614.51829 C630.508105,612.18771 632.394765,609.63517 633.671035,607.47106 C635.557695,604.30813 636.279065,601.86657 635.946125,601.64461 Z M656.655437,625.0059 C655.046227,628.16883 651.439377,630.99882 647.998997,630.99882 C644.725087,630.99882 643.060387,629.38961 642.838427,626.89256 C640.951767,629.00118 638.454717,630.72137 635.624727,630.72137 C632.794737,630.72137 631.684937,628.61275 631.684937,626.22668 C631.684937,625.0059 631.906897,623.72963 632.406307,622.39787 C633.627087,618.902 636.457077,613.353 639.897457,608.52537 C640.618827,607.58204 641.617647,607.69302 642.283527,608.52537 C642.893917,609.30223 643.115877,610.24556 643.115877,611.07791 C643.115877,613.353 639.065107,619.78984 637.122957,624.06257 C636.124137,626.28217 635.957667,628.3353 637.178447,628.3353 C638.621187,628.3353 641.562157,624.56198 644.392147,620.12278 C647.666057,614.79574 649.108797,611.02242 651.106437,608.46988 C651.883297,607.41557 652.771137,607.19361 653.437017,608.13694 C653.991917,608.9138 654.269367,609.80164 654.269367,611.02242 C654.269367,612.90908 653.104077,615.35064 651.161927,618.56906 C649.552717,621.17709 647.388607,624.95041 647.388607,627.11452 C647.388607,628.11334 647.721547,628.66824 648.442917,628.66824 C650.274087,628.66824 653.104077,624.83943 655.101717,621.34356 C655.656617,620.40023 656.599947,620.23376 657.043867,621.28807 C657.265827,621.78748 657.487787,623.39669 656.655437,625.0059 Z M662.271469,628.27981 C663.436759,628.27981 663.936169,625.50531 663.936169,621.89846 C663.936169,620.12278 663.880679,618.3471 663.769699,616.84887 C662.437939,618.95749 660.884219,621.34356 659.219519,623.72963 C659.885399,626.33766 661.050689,628.27981 662.271469,628.27981 Z M654.669339,622.95277 C654.669339,621.28807 655.224239,619.67886 656.445019,618.62455 C657.554819,617.68122 658.387169,617.95867 658.553639,619.29043 C660.384809,616.6824 662.326959,613.79692 663.769699,611.41085 C663.991659,609.41321 664.657539,608.13694 665.933809,607.08263 C666.821649,606.30577 667.820469,605.91734 668.652819,605.91734 C670.151049,605.91734 670.483989,607.13812 668.763799,609.96811 C668.708309,610.63399 668.652819,611.57732 668.652819,612.29869 C668.652819,616.23848 669.374189,619.84533 669.263209,622.84179 C669.207719,624.22904 668.930269,625.78276 668.319879,627.00354 C670.594969,625.44982 672.148689,623.61865 673.147509,620.89964 C673.646919,619.62337 674.479269,620.0118 674.867699,620.89964 C675.145149,621.45454 675.311619,623.00826 674.312799,624.72845 C672.204179,628.61275 668.319879,630.72137 664.158129,630.88784 C660.828729,630.99882 657.499329,630.11098 655.612669,626.61511 C655.002279,625.5608 654.669339,624.22904 654.669339,622.95277 Z M682.092941,605.52891 C682.092941,603.97519 683.258231,602.53245 684.534501,602.53245 C686.088221,602.53245 687.586451,604.53009 687.586451,606.1393 C687.586451,607.63753 686.754101,608.9138 685.366851,608.9138 C683.591171,608.9138 682.092941,607.2491 682.092941,605.52891 Z M686.199201,625.0059 C684.534501,628.50177 680.705691,630.83235 677.431781,630.83235 C674.046891,630.83235 672.548661,628.8902 672.548661,626.1157 C672.548661,625.06139 672.770621,623.8961 673.214541,622.45336 C674.601791,618.56906 678.153151,612.13222 680.206281,609.24674 C681.038631,608.13694 681.704511,608.02596 682.425881,608.85831 C683.480191,609.96811 683.924111,612.35418 682.481371,615.12868 C681.427061,617.51475 678.874521,621.6765 677.931191,623.8961 C677.431781,625.17237 677.154331,626.33766 677.154331,627.2255 C677.154331,628.11334 677.376291,628.61275 677.986681,628.61275 C680.206281,628.61275 683.091761,624.89492 684.811951,621.1216 C685.255871,620.12278 685.977241,620.23376 686.476651,621.23258 C686.976061,622.17591 686.920571,623.56316 686.199201,625.0059 Z M692.259153,615.0177 C690.871903,620.51121 690.317003,622.73081 689.817593,625.67178 C693.812873,619.51239 699.861283,611.57732 703.135193,608.19243 C704.355973,607.02714 705.021853,607.2491 705.188323,608.58086 C705.354793,609.80164 704.744403,611.29987 702.857743,613.57496 C697.808153,619.62337 694.034833,624.06257 690.039553,630.38843 C689.651123,630.99882 689.040733,631.44274 688.208383,631.05431 C685.933293,630 684.989963,628.72373 685.156433,625.78276 C685.378393,621.95395 686.821133,614.24084 688.763283,608.46988 C689.096223,607.47106 689.873083,607.19361 690.760923,607.91498 C692.037193,609.02478 692.647583,610.35654 692.647583,612.02124 C692.647583,612.90908 692.536603,613.9079 692.259153,615.0177 Z M716.186884,611.07791 C715.354534,610.41203 711.248274,613.79692 708.584754,619.12396 C709.028674,619.40141 709.417104,619.51239 709.805534,619.51239 C711.137294,619.51239 712.912974,617.84769 714.022774,616.34946 C715.631984,614.18535 716.797274,611.57732 716.186884,611.07791 Z M720.348634,613.29751 C720.348634,616.62691 716.630804,622.45336 711.747684,622.45336 C710.415924,622.45336 709.084164,622.06493 707.807894,621.23258 C707.474954,622.34238 707.308484,623.50767 707.308484,624.50649 C707.308484,626.94805 708.307304,628.66824 709.972004,628.66824 C714.189244,628.66824 717.907074,624.56198 720.182164,621.1216 C720.792554,620.23376 721.513924,620.12278 721.957844,621.23258 C722.124314,621.73199 722.179804,623.3412 721.180984,624.83943 C718.850404,628.22432 714.411204,630.83235 710.082984,630.88784 C704.922414,630.94333 702.092424,627.55844 702.092424,623.11924 C702.092424,621.1216 702.647324,618.95749 703.812614,616.73789 C706.698094,610.85595 711.192784,607.91498 714.411204,607.91498 C715.188064,607.91498 715.798454,608.02596 716.353354,608.3589 C717.907074,609.24674 719.016874,610.13458 719.793734,611.24438 C720.126674,611.74379 720.348634,612.57614 720.348634,613.29751 Z M733.744808,624.61747 C733.744808,623.39669 734.077748,621.84297 734.854608,620.0118 C735.964408,617.29279 738.073028,612.90908 740.292628,608.9138 C738.572438,608.69184 737.573618,608.08145 737.129698,607.41557 C736.352838,606.25028 736.907738,605.69538 738.184008,605.75087 C739.460278,605.80636 740.958508,605.75087 742.179288,605.63989 C743.899478,602.64343 745.064768,600.81226 746.341038,598.98109 C747.173388,597.76031 747.839268,597.8158 748.449658,598.87011 C748.838088,599.53599 749.060048,600.47932 749.060048,601.1452 C749.060048,602.14402 748.838088,603.42029 748.172208,604.97401 C749.892398,605.19597 750.835728,606.08381 751.224158,606.74969 C751.779058,607.74851 751.390628,608.41439 750.058868,608.24792 C749.060048,608.13694 747.617308,608.24792 746.396528,608.41439 C744.287908,612.02124 741.124978,617.51475 739.182828,621.73199 C738.516948,623.23022 738.184008,624.67296 738.184008,625.89374 C738.184008,627.55844 738.738908,628.72373 739.682238,628.72373 C741.846348,628.72373 744.731828,625.22786 746.673978,621.06611 C747.284368,619.73435 748.560638,619.62337 748.949068,621.1216 C749.226518,622.28689 749.004558,623.11924 748.394168,624.39551 C747.617308,626.06021 743.899478,630.83235 739.238318,630.83235 C736.297348,630.83235 733.744808,628.44628 733.744808,624.61747 Z M766.218,618.23612 C765.82957,618.68004 765.38565,618.902 764.77526,619.01298 C763.60997,623.61865 760.05861,629.05667 755.84137,630.49941 C755.34196,630.66588 754.67608,630.83235 753.84373,630.83235 C752.01256,630.83235 749.95943,630.05549 748.40571,628.00236 C747.3514,626.61511 746.85199,624.95041 746.85199,623.17473 C746.85199,620.73317 747.73983,618.01416 749.18257,615.40613 C751.67962,610.96693 755.17549,608.19243 758.83783,608.19243 C760.44704,608.19243 761.44586,608.80282 762.50017,610.24556 C764.05389,612.07673 765.60761,612.46516 765.1082,617.18181 C766.55094,617.18181 766.66192,617.68122 766.218,618.23612 Z M760.94645,616.07201 C761.50135,614.79574 761.72331,613.46398 761.72331,612.74261 C761.72331,611.91026 761.27939,611.57732 760.89096,611.57732 C760.55802,611.57732 760.05861,612.02124 760.05861,612.90908 C760.05861,613.9079 760.33606,615.35064 760.94645,616.07201 Z M751.18021,625.67178 C751.18021,627.33648 751.67962,628.00236 752.51197,628.00236 C753.95471,628.00236 756.17431,625.94923 758.22744,622.17591 C759.05979,620.73317 759.72567,619.34592 760.05861,618.18063 C758.28293,617.07083 757.11764,615.62809 756.67372,613.68594 C755.50843,614.79574 754.45412,616.18299 753.51079,617.84769 C752.06805,620.51121 751.18021,623.61865 751.18021,625.67178 Z M801.421743,595.15228 C803.419383,595.15228 804.973103,595.81816 805.916433,596.81698 C809.523283,598.42619 810.966023,601.81108 810.966023,605.75087 C810.966023,609.85713 809.523283,614.62927 807.414663,618.51357 C803.641343,625.39433 798.036853,631.1098 791.655503,631.1098 C790.323743,631.1098 789.158453,630.88784 787.937673,630.44392 C783.165533,628.66824 781.334363,624.50649 781.334363,619.90082 C781.334363,608.19243 791.766483,597.92678 798.092343,595.70718 C799.202143,595.31875 800.256453,595.15228 801.421743,595.15228 Z M789.824333,628.05785 C793.264713,628.05785 798.425283,623.84061 802.365073,616.62691 C805.028593,611.6883 806.138393,607.02714 806.138393,603.64225 C806.138393,600.97873 805.583493,599.20305 804.418203,598.75913 C801.976643,597.87129 795.428823,601.53363 790.379233,609.24674 C787.549243,613.63045 786.328463,618.40259 786.328463,622.00944 C786.328463,625.89374 787.715713,628.05785 789.824333,628.05785 Z M817.525385,616.95985 L815.749705,619.95631 C814.029515,623.50767 814.417945,627.50295 815.860685,627.50295 C817.580875,627.50295 820.077925,624.451 822.353015,619.84533 C823.684775,617.2373 824.350655,614.40731 824.350655,612.57614 C824.350655,611.57732 824.239675,610.91144 823.962225,610.80046 C822.963405,610.35654 819.911455,612.90908 817.525385,616.95985 Z M829.067305,614.24084 C829.067305,616.62691 828.179465,619.4569 826.903195,622.12042 C825.571435,625.17237 823.740265,627.66942 821.964585,629.11216 C826.070845,628.27981 829.233775,624.61747 830.842985,621.39905 C831.508865,620.12278 832.674155,620.40023 832.896115,621.51003 C833.007095,622.06493 833.062585,623.61865 832.119255,625.28335 C829.622205,629.77804 824.961045,631.33176 820.355375,631.33176 C815.971665,631.33176 813.252655,629.83353 811.976385,626.83707 C809.534825,631.38725 807.148755,636.15939 804.818175,641.59741 C804.374255,642.59623 803.708375,642.81819 803.153475,642.15231 C802.321125,641.098 802.043675,640.32114 802.043675,639.15585 C802.043675,638.26801 802.210145,637.10272 802.709555,635.549 C804.318765,630.27745 813.474615,613.02006 816.914995,608.41439 C817.913815,607.19361 818.635185,607.41557 819.079105,608.02596 C819.523025,608.63635 819.634005,609.35772 819.634005,610.07909 C821.021255,609.13576 822.630465,608.41439 824.128695,608.41439 C827.458095,608.41439 829.067305,611.41085 829.067305,614.24084 Z M845.614867,611.07791 C844.782517,610.41203 840.676257,613.79692 838.012737,619.12396 C838.456657,619.40141 838.845087,619.51239 839.233517,619.51239 C840.565277,619.51239 842.340957,617.84769 843.450757,616.34946 C845.059967,614.18535 846.225257,611.57732 845.614867,611.07791 Z M849.776617,613.29751 C849.776617,616.62691 846.058787,622.45336 841.175667,622.45336 C839.843907,622.45336 838.512147,622.06493 837.235877,621.23258 C836.902937,622.34238 836.736467,623.50767 836.736467,624.50649 C836.736467,626.94805 837.735287,628.66824 839.399987,628.66824 C843.617227,628.66824 847.335057,624.56198 849.610147,621.1216 C850.220537,620.23376 850.941907,620.12278 851.385827,621.23258 C851.552297,621.73199 851.607787,623.3412 850.608967,624.83943 C848.278387,628.22432 843.839187,630.83235 839.510967,630.88784 C834.350397,630.94333 831.520407,627.55844 831.520407,623.11924 C831.520407,621.1216 832.075307,618.95749 833.240597,616.73789 C836.126077,610.85595 840.620767,607.91498 843.839187,607.91498 C844.616047,607.91498 845.226437,608.02596 845.781337,608.3589 C847.335057,609.24674 848.444857,610.13458 849.221717,611.24438 C849.554657,611.74379 849.776617,612.57614 849.776617,613.29751 Z M859.609889,608.41439 C860.109299,609.24674 860.331259,610.13458 860.331259,611.02242 C860.331259,611.41085 860.331259,611.79928 860.275769,612.13222 C862.661839,609.91262 865.325359,608.08145 867.322999,608.08145 C868.932209,608.08145 870.430439,610.0236 870.430439,612.13222 C870.430439,613.353 869.431619,615.12868 867.655939,618.23612 C865.880259,621.06611 863.993599,624.72845 863.993599,626.78158 C863.993599,627.94687 864.382029,628.66824 865.103399,628.66824 C866.990059,628.66824 869.875539,625.06139 871.873179,621.34356 C872.428079,620.28925 873.204939,620.34474 873.704349,621.1216 C874.148269,621.78748 874.203759,623.50767 873.426899,625.0059 C871.873179,628.05785 867.822409,630.99882 864.493009,630.99882 C860.775179,630.99882 859.165969,629.11216 859.165969,626.22668 C859.165969,623.23022 861.718509,618.12514 863.882619,614.68476 C865.047909,612.85359 865.935749,611.41085 865.547319,611.41085 C865.047909,611.41085 862.328899,612.96457 859.276949,616.40495 C856.224999,619.62337 853.727949,625.06139 851.452859,630.05549 C851.064429,630.94333 850.343059,631.27627 849.455219,630.38843 C848.678359,629.61157 848.234439,628.66824 848.234439,627.33648 C848.234439,626.50413 848.400909,625.5608 848.733849,624.451 C849.788159,621.34356 854.060889,613.57496 857.501269,608.41439 C858.222639,607.36008 859.054989,607.41557 859.609889,608.41439 Z M882.039391,608.30341 C882.538801,609.13576 882.816251,610.07909 882.816251,610.96693 C882.816251,611.41085 882.760761,611.91026 882.649781,612.46516 C885.035851,610.13458 888.143291,608.02596 889.918971,608.02596 C891.694651,608.02596 892.859941,610.0236 892.859941,612.35418 C895.356991,610.13458 898.297961,608.24792 900.073641,608.30341 C901.682851,608.3589 902.570691,609.85713 902.570691,611.6883 C902.570691,613.57496 901.405401,616.1275 899.130311,619.62337 C897.576591,622.00944 896.133851,624.451 896.133851,626.39315 C896.133851,627.66942 896.688751,628.55726 897.576591,628.55726 C899.296781,628.55726 902.015791,624.67296 904.068921,621.28807 C904.568331,620.45572 905.123231,620.40023 905.622641,620.89964 C906.233031,621.51003 906.288521,623.61865 905.622641,624.89492 C904.068921,628.11334 900.129131,630.88784 896.688751,630.88784 C892.915431,630.88784 890.862301,628.83471 890.862301,625.83825 C890.862301,624.83943 891.084261,623.61865 891.694651,622.2314 C892.582491,620.34474 894.413661,617.34828 895.689931,615.35064 C896.910711,613.51947 898.242471,611.85477 897.798551,611.85477 C897.354631,611.85477 896.189341,612.40967 892.915431,615.68358 C888.587211,620.0118 885.923691,625.28335 883.593111,630.44392 C883.038211,631.49823 882.261351,631.6647 881.373511,630.77686 C880.541161,629.94451 880.152731,629.16765 880.152731,627.72491 C880.152731,626.78158 880.596651,625.0059 881.151551,623.61865 C881.928411,621.62101 883.759581,618.62455 885.257811,616.29397 C886.756041,613.79692 888.309761,611.6883 887.810351,611.6883 C887.366431,611.6883 885.202321,612.90908 881.872921,616.57142 C878.765481,619.90082 876.212941,624.95041 874.048831,630.05549 C873.660401,630.94333 873.050011,631.27627 872.106681,630.44392 C871.329821,629.77804 870.774921,628.77922 870.774921,627.50295 C870.774921,626.72609 870.941391,625.78276 871.385311,624.50649 C872.550601,621.17709 876.545881,613.46398 879.930771,608.30341 C880.652141,607.2491 881.484491,607.30459 882.039391,608.30341 Z M907.631822,616.84887 C912.071022,610.46752 916.621202,607.85949 919.451192,607.85949 C921.448832,607.85949 922.669612,608.85831 923.169022,610.30105 L924.223332,608.58086 C924.889212,607.47106 925.832542,607.41557 926.498422,608.19243 C927.441752,609.30223 927.941162,611.74379 926.498422,614.62927 C925.055682,617.68122 920.394522,623.72963 920.394522,627.44746 C920.394522,628.27981 920.616482,628.77922 921.171382,628.77922 C923.169022,628.77922 925.943522,625.0059 927.774692,621.39905 C928.385082,620.28925 928.884492,620.23376 929.439392,621.39905 C929.661352,621.89846 929.994292,623.39669 929.217432,625.0059 C927.774692,628.05785 924.223332,630.99882 920.838442,630.99882 C918.063942,630.99882 916.454732,629.55608 916.010812,627.50295 C914.401602,629.05667 911.904552,630.77686 909.684952,630.77686 C906.411042,630.77686 904.635362,628.39079 904.635362,625.11688 C904.635362,622.73081 905.634182,619.62337 907.631822,616.84887 Z M910.406322,628.3353 C912.237492,628.3353 914.790032,624.95041 917.509042,620.28925 C919.673152,616.51593 920.671972,613.79692 920.671972,612.35418 C920.671972,611.6883 920.560992,611.29987 920.006092,611.29987 C918.896292,611.29987 915.067482,614.79574 912.237492,619.34592 C910.572792,621.95395 909.629462,624.89492 909.629462,626.6706 C909.629462,627.66942 909.851422,628.3353 910.406322,628.3353 Z M950.925564,620.78866 C951.203014,621.6765 951.092034,623.11924 950.148704,624.56198 C947.929104,627.94687 944.266764,630 939.716584,631.88666 C936.664634,639.21134 932.891314,648.08974 928.063684,649.92091 C926.787414,650.42032 925.622124,650.42032 924.290364,648.64464 C923.458014,647.47935 922.625664,645.81465 922.625664,644.03897 C922.625664,643.37309 922.792134,642.42976 923.125074,641.43094 C924.845264,636.6588 929.339954,633.27391 934.722484,631.1098 L935.554834,629.16765 C934.112094,630.22196 932.669354,630.72137 931.004654,630.72137 C928.230154,630.72137 927.009374,628.61275 927.009374,626.28217 C927.009374,625.11688 927.231334,623.78512 927.730744,622.39787 C929.007014,618.902 931.726024,613.29751 935.166404,608.58086 C935.887774,607.63753 936.720124,607.58204 937.330514,608.46988 C937.885414,609.24674 938.384824,610.24556 938.384824,611.1334 C938.384824,612.52065 937.718944,614.12986 936.442674,616.18299 C934.556014,619.17945 933.390724,621.45454 932.336414,624.06257 C931.559554,626.06021 931.060144,628.27981 932.502884,628.27981 C933.945624,628.27981 936.442674,625.0059 939.161684,620.40023 C942.879514,614.12986 944.377744,610.74497 945.709504,608.74733 C946.486364,607.74851 947.207734,607.63753 947.818124,608.24792 C948.650474,609.08027 948.872434,609.91262 948.872434,611.07791 C948.872434,612.18771 948.594984,613.40849 947.873614,614.79574 C946.264404,617.90318 943.378924,623.28571 941.103834,628.55726 C944.488724,626.50413 947.374204,623.67414 949.149884,621.17709 C949.871254,620.17827 950.703604,620.06729 950.925564,620.78866 Z M933.279744,634.71665 C930.616224,636.54782 928.729564,638.93389 927.564274,641.098 C926.177024,643.70603 925.788594,645.98112 926.343494,646.48053 C926.731924,646.81347 927.897214,645.20426 929.450934,642.48525 C930.616224,640.43212 931.947984,637.71311 933.279744,634.71665 Z" id="ExclusivetoOpenmay"></path>
        </g>
    </g>
</svg>