<svg xmlns="http://www.w3.org/2000/svg" viewBox="0 0 114.95 86.69"><title>Asset 5</title><g id="Layer_2" data-name="Layer 2"><g id="Layer_1-2" data-name="Layer 1"><path d="M21.88,13.65a9.17,9.17,0,0,1,5.71,2.9,12.41,12.41,0,0,1,2.94,6.38,23,23,0,0,1,.32,3.77,19.73,19.73,0,0,1-1.71,8,20.53,20.53,0,0,1-4.89,6.77,24.65,24.65,0,0,1-7.62,4.7,18.77,18.77,0,0,1-7.88,1.63,8.34,8.34,0,0,1-5.58-2.28A10.75,10.75,0,0,1,.33,39.62,19.77,19.77,0,0,1,0,35.79a21.76,21.76,0,0,1,1.69-8.3,23.33,23.33,0,0,1,4.83-7.38A22.46,22.46,0,0,1,14.08,15,15.11,15.11,0,0,1,21.88,13.65ZM10.8,27.22a10.32,10.32,0,0,0-1.45,5.46,9.72,9.72,0,0,0,.15,1.84,4,4,0,0,0,2,3.16c1.06.52,2.47.4,4.24-.32A8.57,8.57,0,0,0,19.9,34a9.51,9.51,0,0,0,1.44-5.3,10.21,10.21,0,0,0-.15-1.9,4.26,4.26,0,0,0-2.05-3.28c-1.06-.55-2.46-.48-4.2.23A8.46,8.46,0,0,0,10.8,27.22Z"/><path d="M43.82,27.11l0,10Q39,38.28,34.2,39.74V8.3q6.72-2,13.48-3.55c3.31-.75,6-.51,7.93.64A7.64,7.64,0,0,1,59.25,11a14.4,14.4,0,0,1,.18,2.27,12.37,12.37,0,0,1-1.36,5.63,12.84,12.84,0,0,1-4,4.56,17,17,0,0,1-6.4,2.76C46.38,26.49,45.1,26.79,43.82,27.11Zm5.79-12a4,4,0,0,0-.07-.69c-.25-1.4-1.24-1.91-2.95-1.52-.91.21-1.83.43-2.74.66,0,1.92,0,3.85,0,5.77l2.74-.65A3.42,3.42,0,0,0,49.61,15.11Z"/><path d="M71.7,8.69l0,3.9c3.19-.31,6.38-.53,9.56-.68l0,7.42q-4.77.21-9.56.68l0,4.44c3.63-.35,7.25-.6,10.86-.73v7.85A191.15,191.15,0,0,0,62,33.5q0-15.72,0-31.44A191.15,191.15,0,0,1,82.56.13V8C79,8.09,75.33,8.33,71.7,8.69Z"/><path d="M115,33.25q-4.67-.68-9.38-1.1-5-8.35-10.06-16.42l0,15.81q-4.77-.16-9.57-.06V0q4.79-.11,9.56.06,5.06,8.21,10.06,16.69,0-8,0-16.08,4.71.42,9.38,1.1Q114.94,17.53,115,33.25Z"/><path d="M52.35,41.55V73q-4.8,1.22-9.59,2.72V60Q40.4,68.6,38.06,77.27c-2.73,1-5.46,2-8.17,3.06q-2.33-6.9-4.65-13.73V82.28q-4.72,2.06-9.39,4.41,0-15.72,0-31.43,5.72-2.9,11.52-5.33,3.34,8,6.7,16.17Q37.32,55.47,40.6,45C44.5,43.69,48.42,42.54,52.35,41.55Z"/><path d="M77.1,63.91q-5.13.51-10.29,1.33l-1.53,5q-5.09.87-10.16,2.06,5.64-17,11.28-33.69c3.72-.61,7.45-1.09,11.16-1.44Q83.17,52.38,88.76,68q-5.06.11-10.15.56C78.11,67,77.6,65.45,77.1,63.91Zm-2.36-7.16L72,48.33c-.94,3-1.88,6.08-2.81,9.14Q71.95,57.05,74.74,56.75Z"/><path d="M114,38q-5.34,10.17-10.77,20.73l0,9.55q-4.74-.33-9.52-.38l0-9.55q-5.46-11-11-21.6c3.67-.23,7.34-.32,11-.29q2.44,5.59,4.86,11.27l4.83-10.88Q108.76,37.27,114,38Z"/></g></g></svg>