<svg xmlns="http://www.w3.org/2000/svg" viewBox="0 0 69.93 20.72"><defs><style>.cls-2{fill:#fff;stroke:#fff;stroke-miterlimit:10;stroke-width:.2px}</style><linearGradient id="linear-gradient" x1="16.1" y1="10.36" x2="3.58" y2="10.36" gradientUnits="userSpaceOnUse"><stop offset="0" stop-color="#fee000"/><stop offset=".42" stop-color="#fbbc0e"/><stop offset=".78" stop-color="#faa418"/><stop offset="1" stop-color="#f99b1c"/></linearGradient><linearGradient id="linear-gradient-2" x1="12.85" y1="11.55" x2="1.07" y2="23.33" gradientUnits="userSpaceOnUse"><stop offset="0" stop-color="#ef4547"/><stop offset="1" stop-color="#c6186d"/></linearGradient><linearGradient id="linear-gradient-3" x1="1.02" y1="-2.66" x2="10.64" y2="6.96" gradientUnits="userSpaceOnUse"><stop offset="0" stop-color="#279e6f"/><stop offset=".04" stop-color="#2ba06f"/><stop offset=".46" stop-color="#53b26c"/><stop offset=".8" stop-color="#6bbd6a"/><stop offset="1" stop-color="#74c169"/></linearGradient></defs><g id="Layer_2" data-name="Layer 2"><g id="artwork"><rect width="69.93" height="20.72" rx="2.59" ry="2.59"/><path d="M67.34.41a2.18 2.18 0 0 1 2.17 2.18v15.54a2.18 2.18 0 0 1-2.17 2.18H2.59a2.19 2.19 0 0 1-2.18-2.18V2.59A2.19 2.19 0 0 1 2.59.41h64.75m0-.41H2.59A2.6 2.6 0 0 0 0 2.59v15.54a2.6 2.6 0 0 0 2.59 2.59h64.75a2.6 2.6 0 0 0 2.59-2.59V2.59A2.6 2.6 0 0 0 67.34 0z" fill="#a7a6a6"/><path class="cls-2" d="M24.56 5.31a1.41 1.41 0 0 1-.38 1A1.52 1.52 0 0 1 23 6.8a1.56 1.56 0 0 1-1.14-.46 1.58 1.58 0 0 1-.47-1.16 1.58 1.58 0 0 1 .5-1.18A1.56 1.56 0 0 1 23 3.56a1.53 1.53 0 0 1 .64.13 1.27 1.27 0 0 1 .49.34l-.27.28a1.05 1.05 0 0 0-.86-.37 1.15 1.15 0 0 0-.84.34 1.19 1.19 0 0 0-.36.9 1.19 1.19 0 0 0 .36.9 1.23 1.23 0 0 0 1.71 0 1 1 0 0 0 .26-.63H23v-.38h1.51a1.94 1.94 0 0 1 .05.24zM27 4h-1.47v1h1.28v.38h-1.28v1H27v.38h-1.87V3.63H27zM28.63 6.73h-.4V4h-.86v-.37h2.13V4h-.87zM31.05 6.73v-3.1h.4v3.1zM33.22 6.73h-.4V4H32v-.37h2.14V4h-.87zM38.13 6.33A1.52 1.52 0 0 1 37 6.8a1.49 1.49 0 0 1-1.14-.47 1.57 1.57 0 0 1-.46-1.15A1.57 1.57 0 0 1 35.85 4 1.49 1.49 0 0 1 37 3.56a1.52 1.52 0 0 1 1.13.44 1.67 1.67 0 0 1 0 2.3zm-2-.26a1.17 1.17 0 0 0 .85.35 1.15 1.15 0 0 0 .84-.35 1.21 1.21 0 0 0 .35-.89 1.21 1.21 0 0 0-.35-.89 1.11 1.11 0 0 0-.82-.35 1.13 1.13 0 0 0-.85.35 1.21 1.21 0 0 0-.34.89 1.21 1.21 0 0 0 .33.89zM39.15 6.73v-3.1h.48L41.14 6V3.63h.4v3.1h-.41L39.55 4.2v2.53z"/><path d="M35.29 11.27a2.2 2.2 0 1 0 2.21 2.2 2.16 2.16 0 0 0-2.21-2.2zm0 3.54a1.34 1.34 0 1 1 1.25-1.34 1.28 1.28 0 0 1-1.25 1.34zm-4.82-3.54a2.2 2.2 0 1 0 2.21 2.2 2.16 2.16 0 0 0-2.21-2.2zm0 3.54a1.34 1.34 0 1 1 1.24-1.34 1.28 1.28 0 0 1-1.24 1.34zm-5.74-2.87v.94H27a2 2 0 0 1-.51 1.17 2.29 2.29 0 0 1-1.73.69 2.49 2.49 0 0 1 0-5 2.42 2.42 0 0 1 1.69.67l.66-.66a3.3 3.3 0 0 0-2.35-.94 3.42 3.42 0 1 0 0 6.84 3 3 0 0 0 3.2-3.14 3.42 3.42 0 0 0-.05-.59zm23.47.73a2 2 0 0 0-1.89-1.4 2.09 2.09 0 0 0-2.07 2.2 2.15 2.15 0 0 0 2.18 2.2 2.19 2.19 0 0 0 1.84-1l-.75-.5a1.29 1.29 0 0 1-1.09.61 1.14 1.14 0 0 1-1.07-.67l2.95-1.22zm-3 .73a1.2 1.2 0 0 1 1.15-1.28.83.83 0 0 1 .81.47zm-2.4 2.14h1V9.06h-1zm-1.59-3.78a1.52 1.52 0 0 0-1.21-.49 2.2 2.2 0 0 0 0 4.4 1.49 1.49 0 0 0 1.16-.5v.32c0 .84-.45 1.29-1.17 1.29a1.22 1.22 0 0 1-1.06-.78l-.84.35a2.1 2.1 0 0 0 1.91 1.3 2 2 0 0 0 2.09-2.29v-4h-.92zm-1.11 3.05a1.27 1.27 0 0 1-1.22-1.33 1.28 1.28 0 0 1 1.22-1.35 1.25 1.25 0 0 1 1.18 1.35 1.23 1.23 0 0 1-1.18 1.33zm12.63-5.75h-2.31v6.48h1v-2.45h1.35a2 2 0 1 0 0-4zm0 3.13h-1.35V10h1.38a1.12 1.12 0 0 1 1.13 1.11 1.13 1.13 0 0 1-1.13 1.08zm6-.93a1.8 1.8 0 0 0-1.72 1l.86.35a1 1 0 0 1 1.89.36V13a2.11 2.11 0 0 0-1-.25c-.93 0-1.87.51-1.87 1.46a1.5 1.5 0 0 0 1.61 1.42 1.35 1.35 0 0 0 1.23-.63v.5h.94v-2.45a1.78 1.78 0 0 0-1.94-1.79zm-.11 3.54c-.32 0-.76-.15-.76-.55s.55-.69 1-.69a1.63 1.63 0 0 1 .88.22 1.16 1.16 0 0 1-1.12 1.02zm5.48-3.4L63 14.2l-1.15-2.8h-1.09l1.73 3.92-1 2.18h1l2.66-6.1zm-8.71 4.14h1V9.06h-1z" fill="#fff"/><path d="M5.41 3.91a1 1 0 0 0-.24.73v11.44a1 1 0 0 0 .24.73l6.42-6.41v-.16L5.44 3.87z" fill="#5bc9f4"/><path d="M14 12.57l-2.13-2.13v-.16L14 8.15l2.53 1.44a.79.79 0 0 1 0 1.5L14 12.55z" fill="url(#linear-gradient)"/><path d="M14 12.55l-2.18-2.19-6.41 6.45a.84.84 0 0 0 1.07 0L14 12.55" fill="url(#linear-gradient-2)"/><path d="M14 8.17L6.48 3.88a.84.84 0 0 0-1.07 0l6.45 6.45z" fill="url(#linear-gradient-3)"/></g></g></svg>