<svg width="47" height="47" fill="none" xmlns="http://www.w3.org/2000/svg"><path fill-rule="evenodd" clip-rule="evenodd" d="M1 23.5C1 35.927 11.074 46 23.5 46S46 35.927 46 23.5C46 11.074 35.926 1 23.5 1S1 11.074 1 23.5" fill="#D4F29E"/><path fill-rule="evenodd" clip-rule="evenodd" d="M24 1c8.341 0 15.103 10.074 15.103 22.5C39.103 35.927 32.341 46 24 46c12.15 0 22-10.073 22-22.5C46 11.074 36.15 1 24 1" fill="#C4E281"/><path d="M13.86 3.164A22.41 22.41 0 0 1 23.5 1C35.927 1 46 11.074 46 23.5 46 35.927 35.927 46 23.5 46 11.074 46 1 35.927 1 23.5c0-6.724 2.95-12.76 7.626-16.883" stroke="#3C465A" stroke-width="1.635" stroke-linecap="round" stroke-linejoin="round"/><path d="M12 24.532L19.02 32 35 15" stroke="#3C465A" stroke-width="1.635" stroke-linecap="round" stroke-linejoin="round"/></svg>