<svg xmlns="http://www.w3.org/2000/svg" width="60" height="54" viewBox="0 0 60 54">
  <g fill="none" fill-rule="evenodd">
    <path fill="#E8F4FA" fill-rule="nonzero" d="M27.0067403,0 C17.7632329,-0.000848379189 9.16365498,4.84344067 4.22105265,12.8355669 C-0.721549674,20.8276931 -1.31809013,30.8534125 2.64044199,39.4 C3.04623652,39.6516019 3.5141912,39.778484 3.98850829,39.7655172 C5.63314917,39.7655172 5.63314917,38.6896552 7.27104972,38.6896552 C8.90895028,38.6896552 8.91569061,39.7655172 10.5603315,39.7655172 C12.2049724,39.7655172 12.218453,38.6896552 13.8563536,38.6896552 C15.4942541,38.6896552 15.5009945,39.7655172 17.138895,39.7655172 C18.7767956,39.7655172 18.7835359,38.6896552 20.4281768,38.6896552 C22.0728177,38.6896552 22.0660773,39.7655172 23.7107182,39.7655172 C25.3553591,39.7655172 25.3486188,38.6896552 26.9932597,38.6896552 C28.6379006,38.6896552 28.6379006,39.7655172 30.2825414,39.7655172 C31.9271823,39.7655172 31.920442,38.6896552 33.5650829,38.6896552 C35.2097238,38.6896552 35.2097238,39.7655172 36.8543646,39.7655172 C38.4990055,39.7655172 38.4922652,38.6896552 40.1436464,38.6896552 C41.7950276,38.6896552 41.7882873,39.7655172 43.4261878,39.7655172 C45.0640884,39.7655172 45.0708287,38.6896552 46.7154696,38.6896552 C48.3601105,38.6896552 48.3601105,39.7655172 50.0114917,39.7655172 C50.4865693,39.777198 50.9547862,39.6478494 51.359558,39.3931034 C55.3139458,30.8493606 54.7171954,20.828832 49.77822,12.8395483 C44.8392446,4.85026454 36.2459597,0.00499768576 27.0067403,0 Z" transform="translate(2)"/>
    <g transform="translate(0 8)">
      <path fill="#00DBA8" fill-rule="nonzero" stroke="#191816" stroke-linecap="round" stroke-linejoin="round" stroke-width=".5" d="M36.8494382,27.7328579 L36.8494382,27.7328579 C32.5533408,25.4957224 27.3927266,25.4957224 23.0966292,27.7328579 L23.0966292,27.7328579 L23.0966292,24.1965413 L36.8494382,24.1965413 L36.8494382,27.7328579 Z"/>
      <path stroke="#191816" stroke-linecap="round" stroke-linejoin="round" stroke-width=".5" d="M29.9730337,24.1965413 L29.9730337,26.0532715"/>
      <polygon fill="#00DBA8" fill-rule="nonzero" points="20.67 7.269 18.647 2.546 16.625 7.269 16.625 11.206 20.67 11.206"/>
      <polygon fill="#00F5BC" fill-rule="nonzero" points="19.827 5.301 18.647 2.546 17.467 5.301"/>
      <polygon stroke="#191816" stroke-linecap="round" stroke-linejoin="round" stroke-width=".5" points="20.67 7.269 18.647 2.546 16.625 7.269 16.625 11.206 20.67 11.206"/>
      <path fill="#F7E5C6" fill-rule="nonzero" d="M15.8157303,24.1965413 L15.8157303,14.742307 L15.411236,13.5679087 L15.411236,7.66311285 L17.4337079,7.66311285 L17.4337079,10.7139241 C17.4295475,10.022772 17.7057174,9.35792503 18.2022472,8.86375468 L18.6269663,8.45041897 L19.058427,8.86375468 C19.5598934,9.3557986 19.8410177,10.0209044 19.8404494,10.7139241 L19.8404494,7.66311285 L21.8629213,7.66311285 L21.8629213,13.5679087 L21.458427,14.742307 L21.458427,24.1965413 L15.8157303,24.1965413 Z"/>
      <path fill="#F0D5A8" fill-rule="nonzero" d="M17.4337079,11.2059904 L17.6898876,11.2059904 C17.8110776,10.9218152 17.9847297,10.6616475 18.2022472,10.4383669 L18.4247191,10.2218577 C18.4779654,10.16862 18.5506407,10.1379715 18.6269663,10.1365662 C18.7034523,10.1372443 18.7764027,10.1680089 18.8292135,10.2218577 L19.058427,10.4383669 C19.283175,10.6600111 19.4637542,10.9202832 19.5910112,11.2059904 L19.8404494,11.2059904 L19.8404494,10.7008023 C19.8374707,10.0123296 19.5566135,9.35256848 19.058427,8.86375468 L18.6269663,8.45041897 L18.2022472,8.86375468 C17.7015892,9.35150497 17.418255,10.0113961 17.4134831,10.7008023 L17.4337079,11.2059904 Z"/>
      <rect width="5.663" height="1.588" x="15.816" y="19.466" fill="#F0D5A8" fill-rule="nonzero"/>
      <rect width="2.022" height="1.575" x="15.411" y="7.663" fill="#F0D5A8" fill-rule="nonzero"/>
      <rect width="2.022" height="1.575" x="19.861" y="7.663" fill="#F0D5A8" fill-rule="nonzero"/>
      <rect width="5.663" height="1.601" x="15.816" y="14.749" fill="#F0D5A8" fill-rule="nonzero"/>
      <path stroke="#191816" stroke-linecap="round" stroke-linejoin="round" stroke-width=".5" d="M15.8157303,24.1965413 L15.8157303,14.742307 L15.411236,13.5679087 L15.411236,7.66311285 L17.4337079,7.66311285 L17.4337079,10.7139241 C17.4295475,10.022772 17.7057174,9.35792503 18.2022472,8.86375468 L18.6269663,8.45041897 L19.058427,8.86375468 C19.5598934,9.3557986 19.8410177,10.0209044 19.8404494,10.7139241 L19.8404494,7.66311285 L21.8629213,7.66311285 L21.8629213,13.5679087 L21.458427,14.742307 L21.458427,24.1965413 L15.8157303,24.1965413 Z"/>
      <polygon fill="#00DBA8" fill-rule="nonzero" stroke="#191816" stroke-linecap="round" stroke-linejoin="round" stroke-width=".5" points="15.411 7.657 16.422 4.514 17.434 7.657"/>
      <polygon fill="#00DBA8" fill-rule="nonzero" stroke="#191816" stroke-linecap="round" stroke-linejoin="round" stroke-width=".5" points="19.867 7.657 20.879 4.514 21.89 7.657"/>
      <path stroke="#191816" stroke-linecap="round" stroke-linejoin="round" stroke-width=".5" d="M15.8157303,14.7488679 L21.4786517,14.7488679"/>
      <path fill="#00B8F0" fill-rule="nonzero" stroke="#191816" stroke-linecap="round" stroke-linejoin="round" stroke-width=".5" d="M18.647191,12.3869495 L18.647191,12.3869495 C18.2003989,12.3869495 17.8382022,12.7394385 17.8382022,13.1742557 L17.8382022,14.7488679 L19.4561798,14.7488679 L19.4561798,13.1742557 C19.4579951,12.9649125 19.3733457,12.76363 19.2212356,12.6155967 C19.0691255,12.4675635 18.8622996,12.3851828 18.647191,12.3869495 L18.647191,12.3869495 Z"/>
      <path stroke="#191816" stroke-linecap="round" stroke-linejoin="round" stroke-width=".5" d="M15.8157303,19.4727046 L21.4786517,19.4727046"/>
      <path fill="#00B8F0" fill-rule="nonzero" stroke="#191816" stroke-linecap="round" stroke-linejoin="round" stroke-width=".5" d="M18.647191 17.1107862L18.647191 17.1107862C18.2003989 17.1107862 17.8382022 17.4632752 17.8382022 17.8980924L17.8382022 19.4727046 19.4561798 19.4727046 19.4561798 17.8980924C19.4579951 17.6887492 19.3733457 17.4874667 19.2212356 17.3394334 19.0691255 17.1914002 18.8622996 17.1090195 18.647191 17.1107862zM18.647191 21.8346229L18.647191 21.8346229C18.2003989 21.8346229 17.8382022 22.1871119 17.8382022 22.621929L17.8382022 24.1965413 19.4561798 24.1965413 19.4561798 22.621929C19.4579951 22.4125859 19.3733457 22.2113034 19.2212356 22.0632701 19.0691255 21.9152369 18.8622996 21.8328562 18.647191 21.8346229L18.647191 21.8346229z"/>
      <path stroke="#191816" stroke-linecap="round" stroke-linejoin="round" stroke-width=".5" d="M18.647191 1.23344625L18.647191.0524870743M20.8719101 3.20171154L20.8719101 2.80805848M16.4224719 3.20171154L16.4224719 2.80805848"/>
      <polygon fill="#00DBA8" fill-rule="nonzero" points="43.321 7.269 41.299 2.546 39.276 7.269 39.276 11.206 43.321 11.206"/>
      <polygon fill="#00F5BC" fill-rule="nonzero" points="42.479 5.301 41.299 2.546 40.119 5.301"/>
      <polygon stroke="#191816" stroke-linecap="round" stroke-linejoin="round" stroke-width=".5" points="43.321 7.269 41.299 2.546 39.276 7.269 39.276 11.206 43.321 11.206"/>
      <path fill="#F7E5C6" fill-rule="nonzero" d="M38.4674157,24.1965413 L38.4674157,14.742307 L38.0629213,13.5679087 L38.0629213,7.66311285 L40.0853933,7.66311285 L40.0853933,10.7139241 C40.086616,10.0199664 40.3702198,9.35472944 40.8741573,8.86375468 L41.2988764,8.45041897 L41.7303371,8.86375468 C42.2318035,9.3557986 42.5129278,10.0209044 42.5123596,10.7139241 L42.5123596,7.66311285 L44.5348315,7.66311285 L44.5348315,13.5679087 L44.1303371,14.742307 L44.1303371,24.1965413 L38.4674157,24.1965413 Z"/>
      <path fill="#F0D5A8" fill-rule="nonzero" d="M40.0853933,11.2059904 L40.3348315,11.2059904 C40.4669679,10.92132 40.6495244,10.6614869 40.8741573,10.4383669 L41.0966292,10.2218577 C41.1498755,10.16862 41.2225508,10.1379715 41.2988764,10.1365662 C41.3753624,10.1372443 41.4483128,10.1680089 41.5011236,10.2218577 L41.7303371,10.4383669 C41.9550851,10.6600111 42.1356643,10.9202832 42.2629213,11.2059904 L42.5123596,11.2059904 L42.5123596,10.7008023 C42.5093808,10.0123296 42.2285236,9.35256848 41.7303371,8.86375468 L41.2988764,8.45041897 L40.8741573,8.86375468 C40.3734993,9.35150497 40.0901651,10.0113961 40.0853933,10.7008023 L40.0853933,11.2059904 Z"/>
      <rect width="5.663" height="1.588" x="38.467" y="19.466" fill="#F0D5A8" fill-rule="nonzero"/>
      <rect width="2.022" height="1.575" x="38.063" y="7.663" fill="#F0D5A8" fill-rule="nonzero"/>
      <rect width="2.022" height="1.575" x="42.512" y="7.663" fill="#F0D5A8" fill-rule="nonzero"/>
      <rect width="5.663" height="1.601" x="38.467" y="14.749" fill="#F0D5A8" fill-rule="nonzero"/>
      <path stroke="#191816" stroke-linecap="round" stroke-linejoin="round" stroke-width=".5" d="M38.4674157,24.1965413 L38.4674157,14.742307 L38.0629213,13.5679087 L38.0629213,7.66311285 L40.0853933,7.66311285 L40.0853933,10.7139241 C40.086616,10.0199664 40.3702198,9.35472944 40.8741573,8.86375468 L41.2988764,8.45041897 L41.7303371,8.86375468 C42.2318035,9.3557986 42.5129278,10.0209044 42.5123596,10.7139241 L42.5123596,7.66311285 L44.5348315,7.66311285 L44.5348315,13.5679087 L44.1303371,14.742307 L44.1303371,24.1965413 L38.4674157,24.1965413 Z"/>
      <polygon fill="#00DBA8" fill-rule="nonzero" stroke="#191816" stroke-linecap="round" stroke-linejoin="round" stroke-width=".5" points="38.063 7.657 39.074 4.514 40.085 7.657"/>
      <polygon fill="#00DBA8" fill-rule="nonzero" stroke="#191816" stroke-linecap="round" stroke-linejoin="round" stroke-width=".5" points="42.512 7.657 43.524 4.514 44.535 7.657"/>
      <path stroke="#191816" stroke-linecap="round" stroke-linejoin="round" stroke-width=".5" d="M38.4674157,14.7488679 L44.1303371,14.7488679"/>
      <path fill="#00B8F0" fill-rule="nonzero" stroke="#191816" stroke-linecap="round" stroke-linejoin="round" stroke-width=".5" d="M41.2988764,12.3869495 L41.2988764,12.3869495 C40.8520842,12.3869495 40.4898876,12.7394385 40.4898876,13.1742557 L40.4898876,14.7488679 L42.1078652,14.7488679 L42.1078652,13.1742557 C42.1096805,12.9649125 42.0250311,12.76363 41.872921,12.6155967 C41.7208108,12.4675635 41.5139849,12.3851828 41.2988764,12.3869495 L41.2988764,12.3869495 Z"/>
      <path stroke="#191816" stroke-linecap="round" stroke-linejoin="round" stroke-width=".5" d="M38.4674157,19.4727046 L44.1303371,19.4727046"/>
      <path fill="#00B8F0" fill-rule="nonzero" stroke="#191816" stroke-linecap="round" stroke-linejoin="round" stroke-width=".5" d="M41.2988764 17.1107862L41.2988764 17.1107862C40.8520842 17.1107862 40.4898876 17.4632752 40.4898876 17.8980924L40.4898876 19.4727046 42.1078652 19.4727046 42.1078652 17.8980924C42.1096805 17.6887492 42.0250311 17.4874667 41.872921 17.3394334 41.7208108 17.1914002 41.5139849 17.1090195 41.2988764 17.1107862zM41.2988764 21.8346229L41.2988764 21.8346229C40.8520842 21.8346229 40.4898876 22.1871119 40.4898876 22.621929L40.4898876 24.1965413 42.1078652 24.1965413 42.1078652 22.621929C42.1096805 22.4125859 42.0250311 22.2113034 41.872921 22.0632701 41.7208108 21.9152369 41.5139849 21.8328562 41.2988764 21.8346229L41.2988764 21.8346229z"/>
      <path stroke="#191816" stroke-linecap="round" stroke-linejoin="round" stroke-width=".5" d="M41.2988764 1.23344625L41.2988764.0524870743M43.5235955 3.20171154L43.5235955 2.80805848M39.0741573 3.20171154L39.0741573 2.80805848"/>
      <rect width="16.18" height="2.756" x="21.883" y="10.419" fill="#00DBA8" fill-rule="nonzero" stroke="#191816" stroke-linecap="round" stroke-linejoin="round" stroke-width=".5"/>
      <path fill="#FFE500" fill-rule="nonzero" stroke="#191816" stroke-linecap="round" stroke-linejoin="round" stroke-width=".5" d="M31.5910112,10.4186843 L31.5910112,10.4186843 C30.8285443,10.1686131 30.2299919,9.58610322 29.9730337,8.84407203 L29.9730337,8.84407203 C29.7207116,9.58889175 29.1203885,10.173125 28.3550562,10.4186843 L28.3550562,10.4186843 L28.3550562,13.1742557 L31.5910112,13.1742557 L31.5910112,10.4186843 Z"/>
      <path stroke="#191816" stroke-linecap="round" stroke-linejoin="round" stroke-width=".5" d="M28.3550562 10.4186843L28.3550562 9.63137814M31.5910112 10.4186843L31.5910112 9.63137814"/>
      <polyline stroke="#191816" stroke-linecap="round" stroke-linejoin="round" stroke-width=".5" points="21.89 10.419 23.912 13.174 25.935 10.419 27.957 13.174"/>
      <polyline stroke="#191816" stroke-linecap="round" stroke-linejoin="round" stroke-width=".5" points="38.063 10.419 36.04 13.174 34.018 10.419 31.996 13.174"/>
      <path stroke="#191816" stroke-linecap="round" stroke-linejoin="round" stroke-width=".5" d="M25.1191011 24.1965413L25.1191011 26.8733821M34.8269663 24.1965413L34.8269663 26.8733821M27.5460674 24.1965413L27.5460674 26.2566589M32.4 24.1965413L32.4 26.2566589"/>
      <rect width="8.899" height="7.086" x="14.198" y="24.197" fill="#DAEDF7" fill-rule="nonzero"/>
      <rect width="8.899" height="1.181" x="14.198" y="24.197" fill="#ADC4D9" fill-rule="nonzero"/>
      <rect width="8.899" height="7.086" x="14.198" y="24.197" stroke="#191816" stroke-linecap="round" stroke-linejoin="round" stroke-width=".5"/>
      <path stroke="#191816" stroke-linecap="round" stroke-linejoin="round" stroke-width=".5" d="M14.1977528 26.5584596L23.0966292 26.5584596M14.1977528 28.920378L23.0966292 28.920378M16.2202247 24.1965413L16.2202247 26.5584596M20.6696629 24.1965413L20.6696629 26.5584596M18.647191 26.5584596L18.647191 28.920378M16.2202247 28.920378L16.2202247 31.2757354M20.6696629 28.920378L20.6696629 31.2757354"/>
      <rect width="8.899" height="7.086" x="36.849" y="24.197" fill="#DAEDF7" fill-rule="nonzero"/>
      <rect width="8.899" height="1.181" x="36.849" y="24.197" fill="#ADC4D9" fill-rule="nonzero"/>
      <rect width="8.899" height="7.086" x="36.849" y="24.197" stroke="#191816" stroke-linecap="round" stroke-linejoin="round" stroke-width=".5"/>
      <path stroke="#191816" stroke-linecap="round" stroke-linejoin="round" stroke-width=".5" d="M36.8494382 26.5584596L45.7483146 26.5584596M36.8494382 28.920378L45.7483146 28.920378M38.8719101 24.1965413L38.8719101 26.5584596M43.3213483 24.1965413L43.3213483 26.5584596M41.2988764 26.5584596L41.2988764 28.920378M38.8719101 28.920378L38.8719101 31.2757354M43.3213483 28.920378L43.3213483 31.2757354"/>
      <polyline fill="#00DBA8" fill-rule="nonzero" stroke="#191816" stroke-linecap="round" stroke-linejoin="round" stroke-width=".5" points=".175 24.197 14.204 24.197 14.204 25.771 .512 25.771"/>
      <polyline fill="#00DBA8" fill-rule="nonzero" stroke="#191816" stroke-linecap="round" stroke-linejoin="round" stroke-width=".5" points="59.778 24.197 45.748 24.197 45.748 25.771 59.44 25.771"/>
      <path stroke="#191816" stroke-linecap="round" stroke-linejoin="round" stroke-width=".5" d="M15.411236 10.4186843C13.1662921 15.8904618 8.23820225 20.6667855 2.4 22.4710287M44.5348315 10.4186843C46.7865169 15.8904618 51.7146067 20.6667855 57.552809 22.4710287M12.9842697 14.7226244L12.9842697 24.1965413M10.152809 17.9112141L10.152809 24.1965413M7.32134831 20.128793L7.32134831 24.1965413M46.9617978 14.7226244L46.9617978 24.1965413M49.7932584 17.9112141L49.7932584 24.1965413M52.6247191 20.128793L52.6247191 24.1965413M.680898876 30.1800677L2.36629213 30.1800677"/>
      <path fill="#4AEFF7" fill-rule="nonzero" d="M49.7123596,30.2456766 C48.0674157,30.2456766 48.0674157,31.2691745 46.4224719,31.2691745 C44.7775281,31.2691745 44.7842697,30.2456766 43.1460674,30.2456766 C41.5078652,30.2456766 41.5011236,31.2691745 39.8629213,31.2691745 C38.2247191,31.2691745 38.2179775,30.2456766 36.5730337,30.2456766 C34.9280899,30.2456766 34.9280899,31.2691745 33.2898876,31.2691745 C31.6516854,31.2691745 31.6449438,30.2456766 30,30.2456766 C28.3550562,30.2456766 28.3550562,31.2691745 26.7168539,31.2691745 C25.0786517,31.2691745 25.0719101,30.2456766 23.4337079,30.2456766 C21.7955056,30.2456766 21.788764,31.2691745 20.1438202,31.2691745 C18.4988764,31.2691745 18.4988764,30.2456766 16.8539326,30.2456766 C15.2089888,30.2456766 15.2157303,31.2691745 13.5707865,31.2691745 C11.9258427,31.2691745 11.9258427,30.2456766 10.2808989,30.2456766 C8.63595506,30.2456766 8.64269663,31.2691745 6.99775281,31.2691745 C6.52334836,31.2815102 6.05530748,31.1608037 5.6494382,30.9214477 C10.1103966,40.087288 19.5989021,45.9311587 30.0202247,45.9311587 C40.4415473,45.9311587 49.9300529,40.087288 54.3910112,30.9214477 C53.9861648,31.1637947 53.5178617,31.2868476 53.0426966,31.2757354 C51.3573034,31.2691745 51.3573034,30.2456766 49.7123596,30.2456766 Z"/>
      <path stroke="#191816" stroke-linecap="round" stroke-linejoin="round" stroke-width=".5" d="M3.71460674,30.2456766 C5.35280899,30.2456766 5.35280899,31.2691745 6.99775281,31.2691745 C8.64269663,31.2691745 8.64269663,30.2456766 10.2808989,30.2456766 C11.9191011,30.2456766 11.9258427,31.2691745 13.5707865,31.2691745 C15.2157303,31.2691745 15.2157303,30.2456766 16.8539326,30.2456766 C18.4921348,30.2456766 18.4988764,31.2691745 20.1370787,31.2691745 C21.7752809,31.2691745 21.7820225,30.2456766 23.4269663,30.2456766 C25.0719101,30.2456766 25.0651685,31.2691745 26.7101124,31.2691745 C28.3550562,31.2691745 28.3483146,30.2456766 29.9932584,30.2456766 C31.6382022,30.2456766 31.6382022,31.2691745 33.2831461,31.2691745 C34.9280899,31.2691745 34.9213483,30.2456766 36.5662921,30.2456766 C38.211236,30.2456766 38.211236,31.2691745 39.8561798,31.2691745 C41.5011236,31.2691745 41.494382,30.2456766 43.1460674,30.2456766 C44.7977528,30.2456766 44.7910112,31.2691745 46.4292135,31.2691745 C48.0674157,31.2691745 48.0741573,30.2456766 49.7191011,30.2456766 C51.3640449,30.2456766 51.3640449,31.2691745 53.0157303,31.2691745 C54.6674157,31.2691745 54.6606742,30.2456766 56.305618,30.2456766"/>
      <path stroke="#A6FBFF" stroke-linecap="round" stroke-linejoin="round" d="M12.1348315,35.4681405 C13.7730337,35.4681405 13.7730337,34.4446425 15.4179775,34.4446425 C17.0629213,34.4446425 17.0629213,35.4681405 18.7011236,35.4681405 C20.3393258,35.4681405 20.3460674,34.4446425 21.9842697,34.4446425 C23.6224719,34.4446425 23.6292135,35.4681405 25.2741573,35.4681405"/>
      <path fill="#FF6242" fill-rule="nonzero" stroke="#191816" stroke-linecap="round" stroke-linejoin="round" stroke-width=".5" d="M25.3348315,41.222036 L38.1438202,41.222036 C38.3914128,41.2225142 38.635042,41.1615458 38.8516854,41.0448921 L41.6629213,37.9219112 C41.7725836,37.8631236 41.8262461,37.7386133 41.7924887,37.6212825 C41.7587313,37.5039518 41.646434,37.4246647 41.5213483,37.4298449 L24.7146067,37.4298449 C24.528575,37.4295187 24.3506734,37.5040193 24.2230144,37.635711 C24.0953554,37.7674027 24.0292872,37.9445788 24.0404494,38.1252986 L24.1955056,40.4478517 C24.3262238,40.9446537 24.8105648,41.2737686 25.3348315,41.222036 Z"/>
      <polygon fill="#FFF" fill-rule="nonzero" stroke="#191816" stroke-linecap="round" stroke-linejoin="round" stroke-width=".5" points="24.613 37.43 39.93 37.43 38.191 34.845 25.058 34.845"/>
      <path fill="#FFF" fill-rule="nonzero" stroke="#191816" stroke-linecap="round" stroke-linejoin="round" stroke-width=".5" d="M38.1842697 34.8448565L36.1213483 32.8044215 34.8539326 32.8044215C34.5225617 32.8044215 34.2539326 33.0658508 34.2539326 33.3883402L34.2539326 34.8448565 38.1842697 34.8448565zM30.0606742 37.4298449L28.1730337 34.1887681C27.9927891 33.8876452 27.6614572 33.7026731 27.3033708 33.7032412L26.0966292 33.7032412C25.6092761 33.7001268 25.1919185 34.0423124 25.1123596 34.5102514L24.6134831 37.4298449 30.0606742 37.4298449z"/>
      <rect width="1.22" height="2.585" x="32.171" y="34.845" fill="#E8F4FA" fill-rule="nonzero" stroke="#191816" stroke-linecap="round" stroke-linejoin="round" stroke-width=".5" transform="rotate(180 32.78 36.137)"/>
      <path fill="#FFF" fill-rule="nonzero" stroke="#191816" stroke-linecap="round" stroke-linejoin="round" stroke-width=".5" d="M33.3910112,36.1373507 L32.1707865,36.1373507"/>
      <polygon fill="#00B8F0" fill-rule="nonzero" points="39.061 36.137 39.93 37.43 33.391 37.43 33.391 36.137"/>
      <polygon fill="#4ACFFF" fill-rule="nonzero" points="36.883 36.137 33.391 36.137 33.391 37.43 35.555 37.43"/>
      <polygon stroke="#191816" stroke-linecap="round" stroke-linejoin="round" stroke-width=".5" points="39.061 36.137 39.93 37.43 33.391 37.43 33.391 36.137"/>
      <path stroke="#191816" stroke-linecap="round" stroke-linejoin="round" stroke-width=".5" d="M35.6157303 32.8044215L35.6157303 34.8448565M35.5685393 36.1373507L35.5685393 37.4298449M37.5033708 36.1373507L37.5033708 37.4298449"/>
      <path fill="#4AEFF7" fill-rule="nonzero" d="M42.2966292,40.5659476 C40.658427,40.5659476 40.658427,39.5424496 39.0134831,39.5424496 C37.3685393,39.5424496 37.3752809,40.5659476 35.7303371,40.5659476 C34.0853933,40.5659476 34.0853933,39.5424496 32.447191,39.5424496 C30.8089888,39.5424496 30.8022472,40.5659476 29.1640449,40.5659476 C27.5258427,40.5659476 27.5191011,39.5424496 25.8741573,39.5424496 C24.2292135,39.5424496 24.2292135,40.5659476 22.5910112,40.5659476 L22.5910112,41.9896595 L42.2966292,41.9896595 L42.2966292,40.5659476 Z"/>
      <path fill="#4AEFF7" fill-rule="nonzero" stroke="#A6FBFF" stroke-linecap="round" stroke-linejoin="round" d="M22.5910112,40.5659476 C24.2292135,40.5659476 24.2292135,39.5424496 25.8741573,39.5424496 C27.5191011,39.5424496 27.5191011,40.5659476 29.1640449,40.5659476 C30.8089888,40.5659476 30.8022472,39.5424496 32.447191,39.5424496 C34.0921348,39.5424496 34.0853933,40.5659476 35.7303371,40.5659476 C37.3752809,40.5659476 37.3752809,39.5424496 39.0134831,39.5424496 C40.6516854,39.5424496 40.658427,40.5659476 42.2966292,40.5659476"/>
    </g>
  </g>
</svg>
