<svg xmlns="http://www.w3.org/2000/svg" viewBox="0 0 69.93 20.72"><defs><style>.cls-2{fill:#fff}</style></defs><g id="Layer_2" data-name="Layer 2"><g id="artwork"><rect width="69.93" height="20.72" rx="2.59" ry="2.59"/><path d="M67.34.41a2.18 2.18 0 0 1 2.17 2.18v15.54a2.18 2.18 0 0 1-2.17 2.18H2.59a2.19 2.19 0 0 1-2.18-2.18V2.59A2.19 2.19 0 0 1 2.59.41h64.75m0-.41H2.59A2.6 2.6 0 0 0 0 2.59v15.54a2.6 2.6 0 0 0 2.59 2.59h64.75a2.6 2.6 0 0 0 2.59-2.59V2.59A2.6 2.6 0 0 0 67.34 0z" fill="#a7a6a6"/><g id="_Group_" data-name="&lt;Group&gt;"><g id="_Group_2" data-name="&lt;Group&gt;"><g id="_Group_3" data-name="&lt;Group&gt;"><path id="_Path_" data-name="&lt;Path&gt;" class="cls-2" d="M16.72 10A2.6 2.6 0 0 1 18 7.82a2.65 2.65 0 0 0-2.1-1.13c-.88-.09-1.73.53-2.18.53s-1.15-.52-1.89-.51a2.8 2.8 0 0 0-2.39 1.43c-1 1.76-.26 4.34.71 5.76.49.7 1.06 1.48 1.8 1.45s1-.47 1.88-.47 1.13.47 1.88.45 1.28-.7 1.75-1.4a5.76 5.76 0 0 0 .79-1.62A2.52 2.52 0 0 1 16.72 10z"/><path id="_Path_2" data-name="&lt;Path&gt;" class="cls-2" d="M15.29 5.75a2.52 2.52 0 0 0 .58-1.83 2.63 2.63 0 0 0-1.68.87 2.48 2.48 0 0 0-.6 1.77 2.16 2.16 0 0 0 1.7-.81z"/></g></g><path class="cls-2" d="M25.92 13.59h-2.48l-.6 1.76h-1.05l2.35-6.52h1.09l2.36 6.52h-1.07zm-2.23-.82h2l-1-2.85zM32.67 13c0 1.48-.79 2.43-2 2.43a1.61 1.61 0 0 1-1.49-.83v2.35h-1V10.6h.95v.79a1.69 1.69 0 0 1 1.52-.84c1.22 0 2.02.95 2.02 2.45zm-1 0c0-1-.49-1.59-1.25-1.59S29.16 12 29.16 13s.5 1.6 1.25 1.6 1.25-.66 1.25-1.6zM37.89 13c0 1.48-.79 2.43-2 2.43a1.61 1.61 0 0 1-1.49-.83v2.35h-1V10.6h.94v.79a1.68 1.68 0 0 1 1.51-.84c1.25 0 2.04.95 2.04 2.45zm-1 0c0-1-.49-1.59-1.25-1.59S34.39 12 34.39 13s.5 1.6 1.25 1.6 1.25-.66 1.25-1.6zM41.35 13.53c.07.65.7 1.07 1.56 1.07s1.41-.42 1.41-1-.36-.81-1.2-1l-.84-.2c-1.2-.29-1.76-.85-1.76-1.76 0-1.12 1-1.9 2.37-1.9a2.09 2.09 0 0 1 2.36 1.9h-1c-.06-.65-.59-1-1.38-1s-1.32.39-1.32 1 .34.73 1.18.94l.72.18c1.34.31 1.89.85 1.89 1.8 0 1.22-1 2-2.51 2s-2.42-.75-2.49-1.93zM47.46 9.47v1.13h.9v.77h-.9V14c0 .41.18.6.57.6h.32v.77a2.34 2.34 0 0 1-.54.05c-1 0-1.33-.37-1.33-1.29v-2.76h-.7v-.77h.7V9.47zM48.88 13a2.26 2.26 0 1 1 4.51 0 2.26 2.26 0 1 1-4.51 0zm3.51 0c0-1-.47-1.63-1.26-1.63S49.88 12 49.88 13s.46 1.63 1.25 1.63S52.39 14 52.39 13zM54.19 10.6h.93v.81a1.14 1.14 0 0 1 1.15-.86 2.34 2.34 0 0 1 .33 0v.92a1.18 1.18 0 0 0-.44-.06 1 1 0 0 0-1 1.09v2.82h-1zM61.12 14a1.9 1.9 0 0 1-2 1.46A2.17 2.17 0 0 1 56.83 13 2.19 2.19 0 0 1 59 10.54a2.09 2.09 0 0 1 2.14 2.34v.34h-3.32v.06a1.23 1.23 0 0 0 1.27 1.34 1.07 1.07 0 0 0 1.1-.67zm-3.3-1.41h2.38a1.15 1.15 0 0 0-1.2-1.26 1.21 1.21 0 0 0-1.18 1.21z"/></g><g id="_Group_4" data-name="&lt;Group&gt;"><path class="cls-2" d="M23.57 3.93a1.39 1.39 0 0 1 1.48 1.55 1.4 1.4 0 0 1-1.48 1.58h-1.13V3.93zm-.64 2.69h.59a1 1 0 0 0 1-1.13 1 1 0 0 0-1-1.12h-.59zM25.59 5.88a1.12 1.12 0 1 1 2.23 0 1.12 1.12 0 1 1-2.23 0zm1.75 0c0-.52-.23-.81-.63-.81s-.63.29-.63.81.22.81.63.81.63-.3.63-.81zM30.78 7.06h-.48l-.49-1.74-.49 1.74h-.48l-.68-2.36h.47l.43 1.8.49-1.8H30l.49 1.8.51-1.8h.46zM32 4.7h.45v.37a.72.72 0 0 1 .71-.42.77.77 0 0 1 .82.88v1.53h-.47V5.65c0-.38-.16-.57-.51-.57a.54.54 0 0 0-.56.6v1.38H32zM34.73 3.77h.47v3.29h-.47zM35.85 5.88a1.12 1.12 0 1 1 2.22 0 1.11 1.11 0 1 1-2.22 0zm1.74 0c0-.52-.23-.81-.63-.81s-.63.29-.63.81.22.81.63.81.63-.3.63-.81zM38.56 6.39c0-.42.32-.67.88-.7h.64v-.2c0-.25-.16-.4-.48-.4s-.44.1-.49.27h-.45c0-.41.43-.67 1-.67s.93.3.93.8v1.57h-.49v-.33a.81.81 0 0 1-.71.37.72.72 0 0 1-.83-.71zm1.52-.2V6h-.57c-.33 0-.48.13-.48.34s.19.34.44.34a.56.56 0 0 0 .61-.49zM41.16 5.88c0-.75.38-1.22 1-1.22a.79.79 0 0 1 .73.41v-1.3h.47v3.29h-.45v-.37a.82.82 0 0 1-.74.41c-.63 0-1.01-.47-1.01-1.22zm.48 0c0 .5.24.8.63.8s.64-.31.64-.8-.25-.8-.64-.8-.63.3-.63.8zM45.3 5.88a1.12 1.12 0 1 1 2.22 0 1.11 1.11 0 1 1-2.22 0zm1.74 0c0-.52-.23-.81-.63-.81s-.63.29-.63.81.23.81.63.81.59-.3.59-.81zM48.15 4.7h.45v.37a.72.72 0 0 1 .71-.42.77.77 0 0 1 .82.88v1.53h-.47V5.65q0-.57-.51-.57a.54.54 0 0 0-.56.6v1.38h-.47zM52.79 4.11v.6h.51v.39h-.51v1.22c0 .24.1.35.33.35h.18v.39h-.25c-.52 0-.73-.18-.73-.64V5.1H52v-.39h.37v-.6zM53.94 3.77h.46v1.31a.72.72 0 0 1 .72-.43.78.78 0 0 1 .81.88v1.53h-.46V5.65c0-.38-.18-.57-.51-.57a.55.55 0 0 0-.59.6v1.38h-.47zM58.69 6.42a1 1 0 0 1-1 .68 1.07 1.07 0 0 1-1.09-1.21 1.09 1.09 0 0 1 1.09-1.24c.65 0 1 .45 1 1.19V6h-1.64a.63.63 0 0 0 .63.68.55.55 0 0 0 .56-.29zm-1.64-.76h1.19a.56.56 0 0 0-.58-.61.61.61 0 0 0-.61.61z"/></g></g></g></svg>