<svg width="53" height="47" fill="none" xmlns="http://www.w3.org/2000/svg"><path fill-rule="evenodd" clip-rule="evenodd" d="M26.447 33.998v10.469c0 1-.806 1.81-1.802 1.81H3.011c-.996 0-1.803-.81-1.803-1.81V3.018c0-.999.807-1.81 1.802-1.81h21.635c.995 0 1.802.811 1.802 1.81v10.955" fill="#F8F8F8"/><path fill-rule="evenodd" clip-rule="evenodd" d="M39.28 23.053l-6.621-4.769c-.006.016-.015.031-.02.048a4.482 4.482 0 0 0-2.213 1.367l-.031.036-6.441-4.638a4.59 4.59 0 0 0-6.4 1.04c-.09.125-.173.255-.252.39-1.182 2.044-.584 4.658 1.39 6.08l7.518 5.413.407 2.504a6.627 6.627 0 0 0 4.028 5.089l1.267.525L39.66 25.38a1.667 1.667 0 0 0-.378-2.327" fill="#F2F2F2"/><path fill-rule="evenodd" clip-rule="evenodd" d="M39.28 23.053l-6.621-4.769c-.006.016-.015.031-.02.048a4.482 4.482 0 0 0-2.213 1.367l-.031.036-6.441-4.638a4.59 4.59 0 0 0-6.4 1.04c-.09.125-.173.255-.252.39-1.182 2.044-.584 4.658 1.39 6.08l7.518 5.413.407 2.504a6.627 6.627 0 0 0 4.028 5.089l1.267.525L39.66 25.38a1.667 1.667 0 0 0-.378-2.327" fill="#F2F2F2"/><path fill-rule="evenodd" clip-rule="evenodd" d="M32.627 29.283l-13.495-9.4a2.101 2.101 0 0 1 2.402-3.45l12.65 8.814-1.654-1.188a2.101 2.101 0 1 1 2.402-3.449l2.61 1.818-1.655-1.187a2.101 2.101 0 1 1 2.402-3.449l2.328 1.622-1.374-.992a2.101 2.101 0 0 1 2.403-3.448l7.583 5.282s4.545 3.48 1.828 7.58l-5.36 7.695s-2.692 2.864-7.193 1.122c-4.501-1.742-7.427-2.944-7.427-2.944s-2.832-1.137-2.44-7.05" fill="#CEA984"/><path d="M26.447 33.998v10.469c0 1-.806 1.81-1.802 1.81H3.011c-.996 0-1.803-.81-1.803-1.81V3.018c0-.999.807-1.81 1.802-1.81h21.635c.995 0 1.802.811 1.802 1.81v10.955" stroke="#3C465A" stroke-width="1.417" stroke-linecap="round"/><path d="M7.354 13.828h12.948" stroke="#005950" stroke-width="1.417" stroke-linecap="round"/><path d="M12.762 5.265h2.132" stroke="#3C465A" stroke-width="1.352" stroke-linecap="round"/><path d="M7.354 20.588h12.948M7.354 27.348h12.948M7.354 34.108h12.948" stroke="#005950" stroke-width="1.417" stroke-linecap="round"/><path fill-rule="evenodd" clip-rule="evenodd" d="M16.081 41.995a2.028 2.028 0 1 1-4.056 0 2.028 2.028 0 0 1 4.056 0" fill="#fff"/><path fill-rule="evenodd" clip-rule="evenodd" d="M15.344 42.16a1.352 1.352 0 1 1-2.704 0 1.352 1.352 0 0 1 2.704 0" fill="#005950"/><path d="M14.841 43.489a1.577 1.577 0 1 1 .605-1.944" stroke="#3C465A" stroke-width="1.417" stroke-linecap="round"/><path fill-rule="evenodd" clip-rule="evenodd" d="M39.288 35.527a426.396 426.396 0 0 1-7.427-2.944s-2.292-.92-2.466-5.411l-.75-.523-.009.011c-.391 5.913 2.44 7.05 2.44 7.05s2.927 1.202 7.428 2.943c4.5 1.742 7.192-1.121 7.192-1.121l.785-1.126s-2.692 2.863-7.193 1.121M34.184 25.247c.508-.729.148-1.857-.805-2.52l-1.659-1.183c-.507.729-.147 1.857.806 2.52l1.658 1.183zM37.607 22.335c.471-.677.082-1.764-.87-2.428l-1.66-1.181c-.472.677-.083 1.765.87 2.428l1.66 1.18zM40.589 19.255c.471-.677.203-1.68-.599-2.24l-1.397-.998c-.473.678-.204 1.681.598 2.24l1.398.998z" fill="#C19B78"/><path fill-rule="evenodd" clip-rule="evenodd" d="M32.626 29.284c.506-.726.143-1.852-.809-2.515l-13.494-9.402c-.506.726-.144 1.852.808 2.515l13.495 9.402z" fill="#C19B78"/><path d="M32.627 29.283l-13.495-9.4a2.101 2.101 0 0 1 2.402-3.45l12.65 8.814-1.654-1.188a2.101 2.101 0 1 1 2.402-3.449l2.61 1.818-1.655-1.187a2.101 2.101 0 1 1 2.402-3.449l2.328 1.622-1.374-.992a2.101 2.101 0 0 1 2.403-3.448l7.583 5.282s4.545 3.48 1.828 7.58l-5.36 7.695s-2.692 2.864-7.193 1.122c-4.501-1.742-7.427-2.944-7.427-2.944s-2.832-1.137-2.44-7.05" stroke="#3C465A" stroke-width="1.417" stroke-linecap="round" stroke-linejoin="round"/></svg>