<svg width="44" height="47" fill="none" xmlns="http://www.w3.org/2000/svg"><path fill-rule="evenodd" clip-rule="evenodd" d="M16.588 1.822a6.452 6.452 0 0 0 0 11.919 6.452 6.452 0 0 0 0-11.919" fill="#F5C86E"/><path d="M26.39 4.489h-6.566a6.594 6.594 0 0 0-5.71-3.3 6.592 6.592 0 0 0-5.71 3.3H4.487a3.3 3.3 0 0 0 0 6.6h3.915a6.592 6.592 0 0 0 5.71 3.3 6.594 6.594 0 0 0 5.71-3.3H39.14a3.3 3.3 0 0 0 0-6.6h-7.151M16.822 27.68H4.488a3.3 3.3 0 0 1 0-6.6H23.803a6.594 6.594 0 0 1 5.71-3.3 6.592 6.592 0 0 1 5.71 3.3h3.916a3.3 3.3 0 0 1 0 6.6h-3.915a6.593 6.593 0 0 1-5.71 3.3" stroke="#3C465A" stroke-width="1.477" stroke-linecap="round" stroke-linejoin="round"/><path fill-rule="evenodd" clip-rule="evenodd" d="M20.714 7.789a6.6 6.6 0 1 1-13.201-.001 6.6 6.6 0 0 1 13.2 0" fill="#fff"/><path clip-rule="evenodd" d="M20.714 7.789a6.6 6.6 0 1 1-13.201-.001 6.6 6.6 0 0 1 13.2 0z" stroke="#3C465A" stroke-width="1.477" stroke-linecap="round" stroke-linejoin="round"/><path fill-rule="evenodd" clip-rule="evenodd" d="M16.436 1.967a6.453 6.453 0 0 0 0 11.919 6.452 6.452 0 0 0 0-11.919" fill="#005950"/><path clip-rule="evenodd" d="M20.714 7.789a6.6 6.6 0 1 1-13.201-.001 6.6 6.6 0 0 1 13.2 0z" stroke="#3C465A" stroke-width="1.477" stroke-linecap="round" stroke-linejoin="round"/><path fill-rule="evenodd" clip-rule="evenodd" d="M16.588 33.172a6.452 6.452 0 0 0 0 11.919 6.452 6.452 0 0 0 0-11.919" fill="#F5C86E"/><path clip-rule="evenodd" d="M26.39 35.839h-6.566a6.594 6.594 0 0 0-5.71-3.3 6.592 6.592 0 0 0-5.71 3.3H4.487a3.3 3.3 0 0 0 0 6.6h3.915a6.592 6.592 0 0 0 5.71 3.3 6.594 6.594 0 0 0 5.71-3.3H39.14a3.3 3.3 0 0 0 0-6.6H26.39z" stroke="#3C465A" stroke-width="1.477" stroke-linecap="round" stroke-linejoin="round"/><path fill-rule="evenodd" clip-rule="evenodd" d="M20.714 39.139a6.6 6.6 0 1 1-13.2-.001 6.6 6.6 0 0 1 13.2 0" fill="#fff"/><path clip-rule="evenodd" d="M20.714 39.139a6.6 6.6 0 1 1-13.2-.001 6.6 6.6 0 0 1 13.2 0z" stroke="#3C465A" stroke-width="1.477" stroke-linecap="round" stroke-linejoin="round"/><path fill-rule="evenodd" clip-rule="evenodd" d="M16.436 33.317a6.453 6.453 0 0 0 0 11.919 6.452 6.452 0 0 0 0-11.919" fill="#005950"/><path clip-rule="evenodd" d="M20.714 39.139a6.6 6.6 0 1 1-13.2-.001 6.6 6.6 0 0 1 13.2 0z" stroke="#3C465A" stroke-width="1.477" stroke-linecap="round" stroke-linejoin="round"/><path fill-rule="evenodd" clip-rule="evenodd" d="M32.263 18.46a6.452 6.452 0 0 0 0 11.918 6.452 6.452 0 0 0 0-11.918" fill="#F5C86E"/><path fill-rule="evenodd" clip-rule="evenodd" d="M36.389 24.38a6.6 6.6 0 1 1-13.201 0 6.6 6.6 0 0 1 13.2 0" fill="#fff"/><path clip-rule="evenodd" d="M36.389 24.38a6.6 6.6 0 1 1-13.201 0 6.6 6.6 0 0 1 13.2 0z" stroke="#3C465A" stroke-width="1.477" stroke-linecap="round" stroke-linejoin="round"/><path fill-rule="evenodd" clip-rule="evenodd" d="M32.11 18.605a6.453 6.453 0 0 0 0 11.918 6.452 6.452 0 0 0 0-11.918" fill="#2864FF"/><path clip-rule="evenodd" d="M36.389 24.38a6.6 6.6 0 1 1-13.201 0 6.6 6.6 0 0 1 13.2 0z" stroke="#3C465A" stroke-width="1.477" stroke-linecap="round" stroke-linejoin="round"/></svg>