<?xml version="1.0" encoding="UTF-8"?>
<svg width="171px" height="34px" viewBox="0 0 171 34" version="1.1" xmlns="http://www.w3.org/2000/svg" xmlns:xlink="http://www.w3.org/1999/xlink">
    <!-- Generator: Sketch 54.1 (76490) - https://sketchapp.com -->
    <title>logo copy 9</title>
    <desc>Created with Sketch.</desc>
    <g id="BRAND" stroke="none" stroke-width="1" fill="none" fill-rule="evenodd">
        <g id="Brand---Mark-Copy" transform="translate(-1034.000000, -794.000000)" fill-rule="nonzero">
            <g id="logo-copy-9" transform="translate(1034.000000, 794.000000)">
                <path d="M33.8570005,3.44605918 C33.8777711,3.22088207 33.8949295,2.97287387 33.9080241,2.70427293 L33.9080241,2.70427293 C33.9220217,2.39985854 33.8326175,2.09231047 33.6316838,1.860866 L33.6316838,1.860866 C33.4086247,1.6030091 33.0930008,1.45975527 32.7520907,1.45975527 L32.7520907,1.45975527 L28.4873288,1.45975527 C28.216407,1.45975527 27.9779957,1.65135727 27.9211021,1.91458619 L27.9211021,1.91458619 L21.3878211,32.41467 C21.338152,32.6465622 21.4343293,32.88696 21.6497122,33.0239465 L21.6497122,33.0239465 C21.7431803,33.0834863 21.8551613,33.1081081 21.9666908,33.1081081 L21.9666908,33.1081081 L24.3309357,33.1081081 C26.2784125,33.1081081 27.9807049,31.736005 28.3794116,29.8459497 L28.3794116,29.8459497 L30.0478389,21.9262512 C31.1446209,23.4366838 33.4605514,24.9336863 36.9608621,24.9336863 L36.9608621,24.9336863 C43.9276182,24.9336863 48.984375,18.8964326 48.984375,10.5792047 L48.984375,10.5792047 C48.984375,4.67087945 45.5490856,1 40.0177639,1 L40.0177639,1 C37.5961739,1 35.2910803,1.92622556 33.8570005,3.44605918 L33.8570005,3.44605918 Z M31.8458571,14.1614458 C31.8458571,9.9520215 34.4995368,6.65584036 37.8878664,6.65584036 C40.7420284,6.65584036 42.4465786,8.48322205 42.4465786,11.543482 C42.4465786,16.5072273 39.3102063,19.1865216 36.3585125,19.1865216 C33.5747902,19.1865216 31.8458571,17.2606529 31.8458571,14.1614458 Z M49.875,15.0907154 C49.875,6.27090659 56.093139,1 62.1045415,1 C68.2010445,1 72.140625,4.90084813 72.140625,10.9377545 C72.140625,12.1214887 71.931215,13.5959807 71.5805648,14.8823083 C71.5128407,15.1321208 71.2873908,15.3069436 71.0325344,15.3074037 L55.870808,15.3529496 C55.937641,18.4233896 57.8307961,20.3970466 60.7340201,20.3970466 C63.5615001,20.3970466 64.9676657,18.5687685 65.4412886,17.7825261 C65.59545,17.5253526 65.9117927,17.4351808 66.1768968,17.5713586 L70.1222695,19.6085039 C70.2630642,19.6807333 70.365987,19.8058696 70.4114334,19.9609098 C70.4582165,20.1164101 70.4399488,20.2884725 70.3615315,20.4320112 C69.4579498,22.0978882 66.6736885,25.972973 60.368221,25.972973 C54.2882034,25.972973 49.875,21.3962968 49.875,15.0907154 Z M62.0132031,6.43422786 C59.4477083,6.43422786 57.4266795,8.01407365 56.5689898,10.6746002 L66.0753107,10.6746002 C66.1007072,10.4574519 66.1007072,10.3511781 66.1007072,10.2766484 C66.1007072,8.84954248 65.2403442,6.43422786 62.0132031,6.43422786 Z M81.9321562,3.62620092 C83.3055,2.00867925 85.4826328,1.09223508 88.0053281,1.09223508 C92.3230781,1.09223508 95.1120703,3.99377818 95.1120703,8.4837639 C95.1120703,9.28025701 95.0216719,10.0844742 94.8341953,10.9432147 L91.9659375,24.5694717 C91.9178437,24.7975604 91.7165625,24.9638562 91.4876719,24.9638562 L88.1571797,24.9638562 C87.5511094,24.9638562 86.9579531,24.7280433 86.5451484,24.2750464 C86.0686641,23.7516237 85.8780703,23.0382784 86.0227969,22.3471968 L88.3027969,11.4784508 C88.3900781,11.0327236 88.4363906,10.5770005 88.4363906,10.1612611 C88.4363906,8.10482764 87.2469609,6.92530903 85.1731406,6.92530903 C82.9176328,6.92530903 81.2009531,8.65369455 80.5815234,11.5484222 L77.8188047,24.5049526 C77.76225,24.7707532 77.5275703,24.9638562 77.2612734,24.9638562 L72.0751641,24.9638562 C71.9647266,24.9638562 71.8529531,24.9388664 71.7603281,24.8770734 C71.5505859,24.7380393 71.4557344,24.4949566 71.5038281,24.2609612 L76.0696172,2.16134421 C76.1252812,1.89281744 76.3604062,1.69835135 76.6284844,1.69835135 L80.8389141,1.69835135 C81.175125,1.69835135 81.4872891,1.84374656 81.7077187,2.10682101 C81.9067734,2.34354258 81.9922734,2.65750536 81.9775781,2.96919633 C81.9664453,3.19864814 81.95175,3.41810403 81.9321562,3.62620092 Z M105.106795,3.44605918 C106.540894,1.92622556 108.846471,1 111.268094,1 C116.765625,1 120.193285,4.62745563 120.234375,10.4740026 L120.234375,10.7054471 C120.183351,18.9573155 115.142329,24.9336863 108.21115,24.9336863 C104.710341,24.9336863 102.395282,23.4366838 101.298033,21.9262512 L99.6291318,29.8459497 C99.2308712,31.736005 97.5285557,33.1081081 95.5810524,33.1081081 L93.2036807,33.1081081 C93.0284822,33.1081081 92.8641207,33.0306615 92.7539443,32.8954657 C92.6433163,32.7602699 92.6013229,32.5852316 92.6378978,32.41467 L99.1712676,1.91458619 C99.228162,1.65135727 99.4661249,1.45975527 99.7379536,1.45975527 L104.00187,1.45975527 C104.321562,1.45975527 104.618226,1.58555004 104.838579,1.8129655 C105.059383,2.04172396 105.173623,2.34166167 105.159625,2.65861078 C105.146982,2.94511844 105.129372,3.20789969 105.106795,3.44605918 Z M103.095624,14.1614458 C103.095624,17.2606529 104.825032,19.1865216 107.609244,19.1865216 C110.560075,19.1865216 113.696941,16.5072273 113.696941,11.543482 C113.696941,8.48322205 111.992368,6.65584036 109.137716,6.65584036 C105.74934,6.65584036 103.095624,9.9520215 103.095624,14.1614458 Z M122.015625,14.776736 C122.015625,6.92256132 127.069109,1 133.770477,1 C137.905718,1 139.662082,2.86797846 140.3017,3.85815598 L140.597878,2.47037299 C140.712659,1.93647144 141.183033,1.55511319 141.727226,1.55511319 L146.376503,1.55511319 C146.613716,1.55511319 146.828423,1.69863026 146.919347,1.93511751 C146.959857,2.0402731 146.961208,2.15580885 146.937801,2.26502624 L143.305793,19.5331083 C143.039773,20.8211515 142.893034,22.2725694 142.893034,23.6188317 C142.893034,23.7262438 142.893034,23.8647965 142.902487,24.0444185 C142.908338,24.158149 142.886732,24.2745874 142.828667,24.3720706 C142.718388,24.5589136 142.531589,24.6645205 142.326785,24.6645205 L138.038503,24.6645205 C137.400685,24.6645205 136.884399,24.1459636 136.884399,23.5069064 L136.884399,23.4342453 C136.884399,23.1011774 136.907355,22.6656617 136.933461,22.2843035 C135.973808,23.4965263 134.129222,25.0810811 131.046358,25.0810811 C125.729105,25.0810811 122.015625,20.843717 122.015625,14.776736 Z M128.44062,14.5443106 C128.44062,17.6014949 130.035841,19.4261475 132.708197,19.4261475 C136.037725,19.4261475 138.453513,16.1081051 138.453513,11.5358679 C138.453513,8.59512189 136.892951,6.83997131 134.278211,6.83997131 C131.448314,6.83997131 128.44062,9.53971694 128.44062,14.5443106 Z M164.847782,1 L170.425278,1 C170.55729,1 170.688849,1.04133648 170.78831,1.12805322 C171.013905,1.32440148 171.059567,1.62139508 170.923486,1.85952913 L157.192006,26.4327165 C154.582062,30.6773436 150.772258,33.1081081 146.737763,33.1081081 C144.990868,33.1081081 143.503475,32.6525082 142.760683,32.2629569 C142.623699,32.1910674 142.531019,32.0625648 142.505702,31.9071037 C142.485357,31.782645 142.521073,31.6559397 142.587079,31.5481054 L145.16402,27.366831 C145.314116,27.1237545 145.615663,27.0276023 145.881495,27.1376831 C146.282503,27.3039276 146.759915,27.3879485 147.299717,27.3879485 C148.80881,27.3421189 149.964816,26.5472904 150.934108,24.8879903 L151.774553,23.5342207 C151.838298,23.4308795 151.861807,23.3077687 151.84101,23.1882524 L148.013122,1.67576153 C147.968365,1.42190165 148.096308,1.16085281 148.357167,1.04268441 C148.425885,1.01213136 148.501837,1 148.576433,1 L154.079333,1 C154.368673,1 154.615969,1.21566857 154.653041,1.50053081 L156.534208,15.8011544 L164.337367,1.30418255 C164.438636,1.11592186 164.633941,1 164.847782,1 Z M0,14.9958773 C0,7.0173402 5.48823669,1 12.7654198,1 C13.3559544,1 13.9291465,1.04274463 14.482328,1.12501654 C14.7962719,1.17143812 15.0039373,1.48627757 14.9385694,1.80663245 C14.7002211,2.96487392 14.1701629,5.547017 13.9335933,6.6965257 C13.8717828,6.99895541 13.5885219,7.1929149 13.2945886,7.13638168 C12.9837575,7.07755037 12.6551392,7.04767509 12.3087337,7.04767509 C8.93939574,7.04767509 6.39894069,10.3426882 6.39894069,14.7132113 C6.39894069,17.8790713 8.14519782,19.9248383 10.847961,19.9248383 C14.6859913,19.9248383 16.7573093,15.9509669 16.7573093,12.2119612 C16.7573093,11.9164258 16.7430796,11.6319213 16.7155094,11.3589072 C16.6879393,11.0895701 16.8422431,10.8358601 17.0921531,10.7517497 L22.2126397,9.0309338 C22.5243602,8.92614052 22.8596486,9.12377696 22.9236825,9.45654157 C23.075763,10.2562797 23.15625,11.0978433 23.15625,11.9761764 C23.15625,19.8241816 17.5692944,25.972973 10.4366322,25.972973 C4.38943319,25.972973 0,21.357013 0,14.9958773 Z" id="Combined-Shape" fill="#3C465A"></path>
                <path d="M21.2813905,2.00641463 C20.2789921,1.00150729 18.9795702,0.297932 17.4258749,0.0101482158 C17.0936718,-0.0510525562 16.7734921,0.170391459 16.7031327,0.517040108 C16.3540077,2.24280845 15.3453749,7.22670034 15.0069374,8.89734127 C14.9575077,9.1435459 15.1806093,9.35331038 15.4094999,9.27529108 L22.9704608,6.6959822 C23.2768358,6.59133355 23.4620858,6.25776598 23.3859374,5.92887023 C23.0283515,4.38904011 22.3118436,3.03935285 21.2813905,2.00641463" id="Fill-16" fill="#00E1B4"></path>
            </g>
        </g>
    </g>
</svg>