<?xml version="1.0" encoding="UTF-8"?>
<svg width="121px" height="41px" viewBox="0 0 121 41" version="1.1" xmlns="http://www.w3.org/2000/svg" xmlns:xlink="http://www.w3.org/1999/xlink">
    <!-- Generator: Sketch 53.2 (72643) - https://sketchapp.com -->
    <title>store-badge-download-on-the-app-store</title>
    <desc>Created with Sketch.</desc>
    <g id="Symbols" stroke="none" stroke-width="1" fill="none" fill-rule="evenodd">
        <g id="Footer/Desktop" transform="translate(-580.000000, -247.000000)" fill-rule="nonzero">
            <g id="badge-download-on-the-app-store" transform="translate(580.500000, 247.744028)">
                <g id="Group">
                    <g id="Shape">
                        <path d="M110.13477,5.42101086e-20 L9.53468,5.42101086e-20 C9.16798,5.42101086e-20 8.80568,5.42101086e-20 8.43995,0.002 C8.1338,0.004 7.83009,0.00981 7.521,0.0147 C6.84951368,0.0226018036 6.17960647,0.0816762599 5.5171,0.19141 C4.85552408,0.303532628 4.21467252,0.51491574 3.61622,0.81841 C3.01849941,1.12447171 2.47234502,1.52216753 1.99757,1.99707 C1.5203025,2.47063699 1.12246318,3.01801638 0.81935,3.61816 C0.515400242,4.21710912 0.304640498,4.8589383 0.19435,5.52148 C0.0830109412,6.18318491 0.0230983806,6.85252054 0.01515,7.52348 C0.00587,7.83008 0.00489,8.1377 0,8.44434 L0,31.5586 C0.00489,31.8691 0.00587,32.1699 0.01515,32.4805 C0.023100818,33.1514262 0.0830133796,33.8207284 0.19435,34.4824 C0.304335953,35.145329 0.515108158,35.7875266 0.81935,36.3867 C1.12232555,36.9849029 1.52022081,37.5300662 1.99757,38.001 C2.47054482,38.478014 3.01705224,38.8759804 3.61622,39.1797 C4.21466797,39.4840065 4.85545044,39.6966478 5.5171,39.8105 C6.1797191,39.9193547 6.84955741,39.9784532 7.521,39.9873 C7.83009,39.9941 8.1338,39.998 8.43995,39.998 C8.80567,40 9.168,40 9.53468,40 L110.13477,40 C110.49417,40 110.85937,40 111.21877,39.998 C111.52347,39.998 111.83597,39.9941 112.14067,39.9873 C112.810843,39.9789237 113.47942,39.9198215 114.14067,39.8105 C114.804454,39.6958464 115.447534,39.4832614 116.04887,39.1797 C116.647497,38.8758046 117.1935,38.4778491 117.66607,38.001 C118.142188,37.5282218 118.540932,36.9834573 118.84767,36.3867 C119.149629,35.7870908 119.358395,35.1449445 119.46677,34.4824 C119.578285,33.8206376 119.640323,33.1514843 119.65237,32.4805 C119.65627,32.1699 119.65627,31.8691 119.65627,31.5586 C119.66407,31.1953 119.66407,30.834 119.66407,30.4648 L119.66407,9.53613 C119.66407,9.16992 119.66407,8.80664 119.65627,8.44434 C119.65627,8.1377 119.65627,7.83008 119.65237,7.52344 C119.640326,6.85242244 119.578287,6.18323567 119.46677,5.52144 C119.358093,4.8592816 119.149339,4.21750328 118.84767,3.61812 C118.230394,2.41519608 117.251573,1.4360254 116.04887,0.81832 C115.447532,0.51556738 114.804383,0.30424041 114.14067,0.19132 C113.479535,0.0811027831 112.810888,0.0220077649 112.14067,0.01456 C111.83597,0.00968 111.52347,0.00382 111.21877,0.00187 C110.85937,-0.00013 110.49417,-0.00013 110.13477,-0.00013 L110.13477,5.42101086e-20 Z" fill="#A6A6A6"></path>
                        <path d="M8.44483,39.125 C8.14015,39.125 7.84283,39.1211 7.54054,39.1143 C6.91432177,39.1061407 6.28956717,39.051625 5.6714,38.9512 C5.0949903,38.8519282 4.53660424,38.6672645 4.01466,38.4033 C3.4975017,38.1415227 3.02581177,37.7982729 2.61766,37.3867 C2.20360033,36.9799753 1.85887673,36.508244 1.59715,35.9902 C1.33253926,35.4687891 1.14941288,34.9098996 1.05415,34.333 C0.951274358,33.7131149 0.895614374,33.0863132 0.88765,32.458 C0.88131,32.2471 0.87301,31.5449 0.87301,31.5449 L0.87301,8.44434 C0.87301,8.44434 0.88185,7.75293 0.8877,7.5498 C0.895325827,6.92248205 0.950662148,6.2966531 1.05323,5.67773 C1.14866872,5.09925008 1.33193687,4.53874887 1.59669,4.01563 C1.85745482,3.49794385 2.20026458,3.02586029 2.61183,2.61768 C3.02293283,2.20562142 3.49613161,1.86060412 4.01417,1.59521 C4.53491467,1.3320936 5.09224545,1.14873255 5.66749,1.05127 C6.28768733,0.949836139 6.91461084,0.894996084 7.543,0.88721 L8.44532,0.875 L111.21387,0.875 L112.12697,0.8877 C112.749643,0.895099198 113.370872,0.949450006 113.98537,1.05029 C114.566438,1.14897507 115.129577,1.33361553 115.65627,1.59814 C116.694088,2.13298605 117.538542,2.97916295 118.07127,4.01807 C118.331797,4.53757756 118.512239,5.09350676 118.60647,5.66699 C118.710259,6.29099138 118.768347,6.92173834 118.78027,7.5542 C118.78317,7.8374 118.78317,8.1416 118.78317,8.44434 C118.79107,8.81934 118.79107,9.17627 118.79107,9.53613 L118.79107,30.4648 C118.79107,30.8281 118.79107,31.1826 118.78317,31.54 C118.78317,31.8652 118.78317,32.1631 118.77927,32.4697 C118.767605,33.0908757 118.710486,33.7103642 118.60837,34.3232 C118.51506,34.9042612 118.33293,35.4675131 118.06837,35.9932 C117.804793,36.5056211 117.462049,36.9732662 117.05277,37.3789 C116.644251,37.7926846 116.171729,38.1379427 115.65337,38.4014 C115.128136,38.6673937 114.565826,38.8527403 113.98537,38.9512 C113.36725,39.052161 112.742435,39.1066802 112.11617,39.1143 C111.82327,39.1211 111.51657,39.125 111.21877,39.125 L110.13477,39.127 L8.44483,39.125 Z" fill="#000000"></path>
                    </g>
                    <g id="_Group_" transform="translate(9.888889, 8.000000)" fill="#FFFFFF">
                        <g id="_Group_2">
                            <g id="_Group_3">
                                <path d="M14.8799911,12.30068 C14.9018481,10.6042091 15.791234,9.03718611 17.2365511,8.14862 C16.3206237,6.84051277 14.8415032,6.04087835 13.2453911,5.99094 C11.5661511,5.81468 9.93820111,6.99577 9.08249111,6.99577 C8.21022111,6.99577 6.89272111,6.00844 5.47399111,6.03763 C3.60731237,6.09793842 1.90924829,7.13352548 1.00107111,8.7655 C-0.932928889,12.11392 0.509661111,17.03497 2.36227111,19.74158 C3.28917111,21.06693 4.37245111,22.54738 5.78990111,22.49488 C7.17696111,22.43735 7.69500111,21.6104 9.36930111,21.6104 C11.0280611,21.6104 11.5140911,22.49488 12.9603011,22.4615 C14.4486811,22.43734 15.3864311,21.13026 16.2808111,19.79236 C16.9467872,18.8479997 17.4592548,17.8042759 17.7992311,16.69985 C16.0314877,15.9521813 14.8820544,14.2200343 14.8799911,12.30068 L14.8799911,12.30068 Z" id="_Path_"></path>
                                <path d="M12.1483611,4.21089 C12.9598877,3.23668191 13.3596961,1.98450245 13.2628811,0.72027 C12.0230489,0.850490487 10.8777913,1.44304968 10.0553011,2.37988 C9.24312984,3.30418903 8.83168574,4.51343268 8.91159111,5.74127 C10.1680479,5.75420677 11.3610272,5.19015322 12.1483611,4.21089 L12.1483611,4.21089 Z" id="_Path_2"></path>
                            </g>
                        </g>
                        <g id="Group" transform="translate(24.111111, 9.000000)">
                            <path d="M8.30227,10.13965 L3.56887,10.13965 L2.43215,13.4961 L0.42727,13.4961 L4.91067,1.0781 L6.99367,1.0781 L11.47707,13.4961 L9.438,13.4961 L8.30227,10.13965 Z M4.0591,8.59082 L7.8111,8.59082 L5.96149,3.14355 L5.90973,3.14355 L4.0591,8.59082 Z" id="Shape"></path>
                            <path d="M21.15969,8.96973 C21.15969,11.78321 19.65383,13.59082 17.38137,13.59082 C16.2067553,13.6522646 15.1003324,13.0370307 14.53274,12.00682 L14.48974,12.00682 L14.48974,16.4912 L12.63134,16.4912 L12.63134,4.44238 L14.4302,4.44238 L14.4302,5.94824 L14.46438,5.94824 C15.0571883,4.92448792 16.1648043,4.30951884 17.34719,4.34765 C19.645,4.34766 21.15969,6.16406 21.15969,8.96973 Z M19.24953,8.96973 C19.24953,7.13673 18.30226,5.93164 16.85695,5.93164 C15.43703,5.93164 14.48195,7.16211 14.48195,8.96973 C14.48195,10.79395 15.43703,12.01563 16.85695,12.01563 C18.30227,12.01563 19.24953,10.81934 19.24953,8.96973 Z" id="Shape"></path>
                            <path d="M31.12453,8.96973 C31.12453,11.78321 29.61867,13.59082 27.34621,13.59082 C26.1715953,13.6522646 25.0651724,13.0370307 24.49758,12.00682 L24.45458,12.00682 L24.45458,16.4912 L22.59618,16.4912 L22.59618,4.44238 L24.395,4.44238 L24.395,5.94824 L24.42918,5.94824 C25.0219926,4.92448854 26.1296128,4.30952307 27.312,4.34766 C29.60988,4.34766 31.12453,6.16406 31.12453,8.96973 Z M29.21437,8.96973 C29.21437,7.13673 28.2671,5.93164 26.82179,5.93164 C25.40187,5.93164 24.44679,7.16211 24.44679,8.96973 C24.44679,10.79395 25.40187,12.01563 26.82179,12.01563 C28.26711,12.01563 29.21438,10.81934 29.21438,8.96973 L29.21437,8.96973 Z" id="Shape"></path>
                            <path d="M37.71047,10.03613 C37.84817,11.26758 39.04447,12.07613 40.67922,12.07613 C42.24563,12.07613 43.37258,11.26754 43.37258,10.15718 C43.37258,9.19331 42.69289,8.61618 41.08352,8.22066 L39.47415,7.83296 C37.19388,7.28218 36.13528,6.21577 36.13528,4.4853 C36.13528,2.34272 38.00247,0.87104 40.65383,0.87104 C43.27783,0.87104 45.07668,2.34272 45.13723,4.4853 L43.26123,4.4853 C43.14893,3.24604 42.12451,2.498 40.62744,2.498 C39.13037,2.498 38.10596,3.25484 38.10596,4.3564 C38.10596,5.23433 38.76026,5.75093 40.36084,6.1464 L41.729,6.48234 C44.27685,7.08488 45.33545,8.10834 45.33545,9.92472 C45.33545,12.24796 43.48486,13.70304 40.5415,13.70304 C37.78759,13.70304 35.92822,12.28214 35.8081,10.03604 L37.71047,10.03613 Z" id="Shape"></path>
                            <path d="M49.34621,2.2998 L49.34621,4.44238 L51.06789,4.44238 L51.06789,5.91406 L49.34621,5.91406 L49.34621,10.90527 C49.34621,11.68066 49.69094,12.04199 50.44777,12.04199 C50.6521614,12.0384259 50.8562221,12.0240726 51.0591,11.99899 L51.0591,13.46188 C50.7188283,13.5254596 50.3729708,13.5542545 50.02687,13.54782 C48.19387,13.54782 47.47902,12.85934 47.47902,11.10348 L47.47902,5.91406 L46.16262,5.91406 L46.16262,4.44238 L47.479,4.44238 L47.479,2.2998 L49.34621,2.2998 Z" id="Shape"></path>
                            <path d="M52.065,8.96973 C52.065,6.1211 53.74273,4.33106 56.35895,4.33106 C58.98395,4.33106 60.65387,6.12106 60.65387,8.96973 C60.65387,11.82618 58.99274,13.6084 56.35895,13.6084 C53.72609,13.6084 52.065,11.82617 52.065,8.96973 Z M58.76031,8.96973 C58.76031,7.01563 57.8648,5.86231 56.35894,5.86231 C54.85308,5.86231 53.95855,7.02442 53.95855,8.96973 C53.95855,10.93164 54.85308,12.07618 56.35894,12.07618 C57.8648,12.07618 58.76027,10.93164 58.76027,8.96973 L58.76031,8.96973 Z" id="Shape"></path>
                            <path d="M62.18606,4.44238 L63.95852,4.44238 L63.95852,5.98338 L64.00152,5.98338 C64.248696,4.99136841 65.1576526,4.30863156 66.17925,4.34764 C66.393414,4.34689223 66.6069872,4.37015075 66.81597,4.41698 L66.81597,6.15526 C66.545601,6.07264332 66.2635596,6.03471129 65.98097,6.04296 C65.4346182,6.02079544 64.9058709,6.23853473 64.5335615,6.63900597 C64.161252,7.03947722 63.9825766,7.58267074 64.04445,8.12596 L64.04445,13.49608 L62.18605,13.49608 L62.18606,4.44238 Z" id="Shape"></path>
                            <path d="M75.3843,10.83691 C75.1343,12.48046 73.53371,13.60839 71.48586,13.60839 C68.85207,13.60839 67.21731,11.84374 67.21731,9.01269 C67.21731,6.17285 68.86086,4.33105 71.40774,4.33105 C73.91262,4.33105 75.48782,6.05175 75.48782,8.79687 L75.48782,9.43359 L69.09329,9.43359 L69.09329,9.54589 C69.0335874,10.2199216 69.2663316,10.8871194 69.7323199,11.3777699 C70.1983083,11.8684204 70.8526275,12.1352333 71.52884,12.11034 C72.4306823,12.1948396 73.2809431,11.6769777 73.61966,10.8369 L75.3843,10.83691 Z M69.1020624,8.13477 L73.62844,8.13476 C73.6621655,7.52909749 73.4416965,6.93682308 73.0201501,6.50063155 C72.5986036,6.06444001 72.0142008,5.82388041 71.40774,5.83691 C70.7964818,5.83326223 70.2090907,6.07393463 69.7761255,6.50543324 C69.3431603,6.93693186 69.1004963,7.52350292 69.1020624,8.13477 L69.1020624,8.13477 Z" id="Shape"></path>
                        </g>
                    </g>
                </g>
                <g id="_Group_4" transform="translate(34.666667, 8.000000)" fill="#FFFFFF">
                    <g id="Group">
                        <path d="M2.83516203,0.742603175 C3.62661318,0.685088692 4.40182208,0.990016435 4.94741768,1.57345708 C5.49301327,2.15689773 5.75148678,2.95735344 5.65169511,3.75450413 C5.65169511,5.69101206 4.61815441,6.80415492 2.83516203,6.80415492 L0.673049905,6.80415492 L0.673049905,0.742603175 L2.83516203,0.742603175 Z M1.60274197,5.94692063 L2.7313134,5.94692063 C3.29692525,5.98115759 3.84766267,5.75548852 4.23060651,5.33257325 C4.61355035,4.90965798 4.78793129,4.33452131 4.70533029,3.76685714 C4.78192168,3.20154873 4.60502946,2.63115806 4.22303511,2.21169166 C3.84104076,1.79222527 3.29391946,1.56757973 2.7313134,1.59919746 L1.60274197,1.59919746 L1.60274197,5.94692063 Z" id="Shape"></path>
                        <path d="M6.70188851,4.51488508 C6.62443051,3.69495878 7.01267568,2.90144704 7.70379503,2.46714653 C8.39491438,2.03284602 9.2694154,2.03284602 9.96053475,2.46714653 C10.6516541,2.90144704 11.0398993,3.69495878 10.9624413,4.51488508 C11.041373,5.33569246 10.6534822,6.13074324 9.96175007,6.56597872 C9.27001793,7.00121419 8.39431185,7.00121419 7.70257971,6.56597872 C7.01084757,6.13074324 6.62295678,5.33569246 6.70188851,4.51488508 Z M10.0454695,4.51488508 C10.0454695,3.5233219 9.60559746,2.94346159 8.83363454,2.94346159 C8.05872229,2.94346159 7.62280279,3.5233219 7.62280279,4.51489524 C7.62280279,5.51440254 8.05875238,6.08979302 8.83363454,6.08979302 C9.60561752,6.08978286 10.0454795,5.51042032 10.0454795,4.51488508 L10.0454695,4.51488508 Z" id="Shape"></path>
                        <polygon id="Shape" points="16.6258735 6.80406349 15.701077 6.80406349 14.7674625 3.43501206 14.6969293 3.43501206 13.7672272 6.80406349 12.8512385 6.80406349 11.6060881 2.22965841 12.5103196 2.22965841 13.3195204 5.7201981 13.3861412 5.7201981 14.3148602 2.22965841 15.1701067 2.22965841 16.0988257 5.7201981 16.1693589 5.7201981 16.9746372 2.22965841 17.8661284 2.22965841"></polygon>
                        <path d="M18.9133925,2.22965841 L19.7715683,2.22965841 L19.7715683,2.95634286 L19.8381891,2.95634286 C20.0698571,2.42131092 20.6111982,2.09402664 21.186205,2.14135873 C21.6314307,2.10746085 22.0677204,2.28042149 22.3718879,2.61140528 C22.6760554,2.94238907 22.8150927,3.39547811 22.7497429,3.84274286 L22.7497429,6.8040127 L21.8582517,6.8040127 L21.8582517,4.06944508 C21.8582517,3.33432889 21.5428034,2.96874667 20.883487,2.96874667 C20.5814972,2.95450323 20.288424,3.07452198 20.0811024,3.29733768 C19.8737808,3.52015339 19.7728875,3.82354388 19.8048737,4.12796952 L19.8048737,6.80406349 L18.9133825,6.80406349 L18.9133925,2.22965841 Z" id="Shape"></path>
                        <polygon id="Shape" points="24.1702582 0.443936508 25.0617493 0.443936508 25.0617493 6.80405333 24.1702582 6.80405333"></polygon>
                        <path d="M26.3010211,4.51488508 C26.2236226,3.69490514 26.611929,2.90137332 27.3030996,2.46706611 C27.9942702,2.0327589 28.8688162,2.0327589 29.5599869,2.46706611 C30.2511575,2.90137332 30.6394639,3.69490514 30.5620654,4.51488508 C30.6408969,5.33572184 30.252935,6.13075016 29.5611685,6.56596647 C28.8694021,7.00118277 27.9936844,7.00118277 27.3019179,6.56596647 C26.6101515,6.13075016 26.2221896,5.33572184 26.3010211,4.51488508 L26.3010211,4.51488508 Z M29.644602,4.51488508 C29.644602,3.5233219 29.20473,2.94346159 28.4327671,2.94346159 C27.6578549,2.94346159 27.2219354,3.5233219 27.2219354,4.51489524 C27.2219354,5.51440254 27.657885,6.08979302 28.4327671,6.08979302 C29.2047401,6.08978286 29.6446121,5.51042032 29.6446121,4.51488508 L29.644602,4.51488508 Z" id="Shape"></path>
                        <path d="M31.5005854,5.51042032 C31.5005854,4.68700444 32.1060213,4.2123073 33.1807022,4.14484317 L34.4043044,4.07341714 L34.4043044,3.67857778 C34.4043044,3.19543873 34.0888561,2.92262603 33.4795078,2.92262603 C32.9818429,2.92262603 32.6370017,3.10764698 32.5380485,3.43106032 L31.6749672,3.43106032 C31.7660756,2.64534349 32.4959252,2.14137905 33.520648,2.14137905 C34.6531418,2.14137905 35.2918832,2.71229968 35.2918832,3.67857778 L35.2918832,6.80407365 L34.4336974,6.80407365 L34.4336974,6.16121905 L34.3631642,6.16121905 C34.0716904,6.63068072 33.5533551,6.90505471 33.0063304,6.87944127 C32.622853,6.91983422 32.2403977,6.79406797 31.9535145,6.53323423 C31.6666313,6.27240049 31.5020963,5.900844 31.5005854,5.51042032 L31.5005854,5.51042032 Z M34.4043044,5.11954286 L34.4043044,4.7371073 L33.3012036,4.80853333 C32.6791149,4.85069206 32.3969721,5.06498032 32.3969721,5.46825143 C32.3969721,5.87995429 32.7496481,6.11953778 33.2346229,6.11953778 C33.5217175,6.14896748 33.8083147,6.05914926 34.0288065,5.87064441 C34.2492982,5.68213956 34.3848043,5.41108933 34.4043044,5.11954286 Z" id="Shape"></path>
                        <path d="M36.463551,4.51488508 C36.463551,3.06945016 37.197323,2.1537727 38.3386248,2.1537727 C38.9149253,2.12688268 39.4546841,2.43959148 39.7238684,2.95631238 L39.7904893,2.95631238 L39.7904893,0.443936508 L40.6819804,0.443936508 L40.6819804,6.80405333 L39.8277171,6.80405333 L39.8277171,6.08133079 L39.7571839,6.08133079 C39.4676518,6.59376455 38.921243,6.90118753 38.3386348,6.87944127 C37.1894883,6.87949206 36.463551,5.96379429 36.463551,4.51488508 Z M37.3844653,4.51488508 C37.3844653,5.48512508 37.8360945,6.06895746 38.5914147,6.06895746 C39.3427925,6.06895746 39.8071721,5.47670349 39.8071721,4.51885714 C39.8071721,3.56548063 39.3379171,2.96478476 38.5914147,2.96478476 C37.8409599,2.96478476 37.3844352,3.55257905 37.3844352,4.51488508 L37.3844653,4.51488508 Z" id="Shape"></path>
                        <path d="M44.3704127,4.51488508 C44.2929547,3.69495878 44.6811999,2.90144704 45.3723192,2.46714653 C46.0634386,2.03284602 46.9379396,2.03284602 47.6290589,2.46714653 C48.3201783,2.90144704 48.7084235,3.69495878 48.6309655,4.51488508 C48.7098972,5.33569246 48.3220064,6.13074324 47.6302743,6.56597872 C46.9385421,7.00121419 46.062836,7.00121419 45.3711039,6.56597872 C44.6793718,6.13074324 44.291481,5.33569246 44.3704127,4.51488508 L44.3704127,4.51488508 Z M47.7139937,4.51488508 C47.7139937,3.5233219 47.2741217,2.94346159 46.5021587,2.94346159 C45.7272465,2.94346159 45.291327,3.5233219 45.291327,4.51489524 C45.291327,5.51440254 45.7272766,6.08979302 46.5021587,6.08979302 C47.2741317,6.08978286 47.7139937,5.51042032 47.7139937,4.51488508 Z" id="Shape"></path>
                        <path d="M49.8271308,2.22965841 L50.6853166,2.22965841 L50.6853166,2.95634286 L50.7519374,2.95634286 C50.9836054,2.42131092 51.5249465,2.09402664 52.0999533,2.14135873 C52.545179,2.10746085 52.9814687,2.28042149 53.2856362,2.61140528 C53.5898037,2.94238907 53.728841,3.39547811 53.6634912,3.84274286 L53.6634912,6.8040127 L52.772,6.8040127 L52.772,4.06944508 C52.772,3.33432889 52.4565517,2.96874667 51.7972353,2.96874667 C51.4952455,2.95450323 51.2021724,3.07452198 50.9948507,3.29733768 C50.7875291,3.52015339 50.6866358,3.82354388 50.718622,4.12796952 L50.718622,6.80406349 L49.8271308,6.80406349 L49.8271308,2.22965841 Z" id="Shape"></path>
                        <path d="M58.7009224,1.09077333 L58.7009224,2.25049397 L59.6796095,2.25049397 L59.6796095,3.01091556 L58.7009224,3.01091556 L58.7009224,5.36309841 C58.7009224,5.8422654 58.8958794,6.05208381 59.3396637,6.05208381 C59.4532789,6.05171559 59.5667799,6.04475902 59.6796095,6.03124825 L59.6796095,6.78322794 C59.5195124,6.81223184 59.3573052,6.82766226 59.1946749,6.82935873 C58.2032575,6.82935873 57.8084481,6.47618032 57.8084481,5.59424 L57.8084481,3.01087492 L57.0913388,3.01087492 L57.0913388,2.25045333 L57.8084481,2.25045333 L57.8084481,1.09077333 L58.7009224,1.09077333 Z" id="Shape"></path>
                        <path d="M60.897323,0.443936508 L61.7809794,0.443936508 L61.7809794,2.9647746 L61.8515126,2.9647746 C62.0943087,2.42506013 62.6451242,2.09735877 63.2288714,2.14533079 C63.6715689,2.12093692 64.1019526,2.29770536 64.4027956,2.62748836 C64.7036386,2.95727136 64.8436062,3.40572001 64.7845745,3.85068698 L64.7845745,6.80406349 L63.8921905,6.80406349 L63.8921905,4.07339683 C63.8921905,3.34274032 63.556127,2.97269841 62.9262437,2.97269841 C62.6160912,2.9469396 62.3105243,3.06112097 62.0912336,3.28471721 C61.8719429,3.50831344 61.761289,3.81852476 61.7888543,4.13241905 L61.7888543,6.80404317 L60.8973632,6.80404317 L60.897323,0.443936508 Z" id="Shape"></path>
                        <path d="M69.9827143,5.56894476 C69.7327302,6.43180646 68.9081627,6.98931102 68.0253501,6.89235302 C67.4230079,6.9084548 66.8441234,6.65562484 66.4422887,6.20094493 C66.0404539,5.74626502 65.8562924,5.13570127 65.9386667,4.53125079 C65.8584803,3.92512048 66.0419517,3.3135784 66.4415489,2.85505722 C66.8411461,2.39653605 67.4175487,2.13615416 68.0214277,2.14136889 C69.2783352,2.14136889 70.0365948,3.01095619 70.0365948,4.44740063 L70.0365948,4.7624127 L66.8468105,4.7624127 L66.8468105,4.81300317 C66.8185832,5.15244713 66.9330642,5.48820089 67.1620991,5.73769214 C67.3911339,5.98718339 67.713471,6.1272624 68.0498376,6.12347937 C68.4859897,6.17650254 68.9105539,5.95741769 69.1245285,5.56891429 L69.9827143,5.56894476 Z M66.8467905,4.09474032 L69.1284208,4.09474032 C69.1511456,3.78428997 69.0433501,3.47855753 68.8315984,3.25288543 C68.6198468,3.02721332 68.3238322,2.90258918 68.0165021,2.90972444 C67.7050084,2.90576143 67.4051354,3.02935491 67.1849068,3.25246871 C66.9646783,3.47558251 66.8427609,3.77930538 66.8468105,4.09474032 L66.8467905,4.09474032 Z" id="Shape"></path>
                    </g>
                </g>
            </g>
        </g>
    </g>
</svg>